<svg xmlns="http://www.w3.org/2000/svg" xmlns:xlink="http://www.w3.org/1999/xlink" version="1.1" x="0px" y="0px" style="enable-background:new 0 0 1080 1080;" xml:space="preserve" viewBox="319.22 64.52 442.56 561.27">
<style type="text/css">
	.st0{display:none;}
	.st1{fill:url(#SVGID_1_);}
	.st2{fill:url(#SVGID_2_);}
	.st3{fill:none;stroke:#FFFFFF;stroke-width:5;stroke-miterlimit:10;}
	.st4{fill:#FFFFFF;stroke:#FFFFFF;stroke-width:5;stroke-miterlimit:10;}
	.st5{fill:#FFFFFF;stroke:#FFFFFF;stroke-miterlimit:10;}
</style>
<g id="Layer_1" class="st0">
</g>
<g id="Layer_2">
	<linearGradient id="SVGID_1_" gradientUnits="userSpaceOnUse" x1="319.219" y1="341.0554" x2="761.7765" y2="341.0554">
		<stop offset="0" style="stop-color:#EB2646"/>
		<stop offset="1" style="stop-color:#F15730"/>
	</linearGradient>
	<path class="st1" d="M319.22,471.81L425.83,64.52l175.85,76.54l-20.96,92.03c21.71,10.33,112.06,56.32,157.18,165.15   c42.94,103.58,16.41,195.37,8.66,219.36H529.18c36.87-36.26,49.59-90.15,32.41-137.36c-19.65-54.01-73.53-85.84-127.11-84.05   C385.85,397.8,341.51,426.97,319.22,471.81z"/>
	<linearGradient id="SVGID_2_" gradientUnits="userSpaceOnUse" x1="338.6421" y1="527.9822" x2="534.2668" y2="527.9822">
		<stop offset="0" style="stop-color:#EB2646"/>
		<stop offset="1" style="stop-color:#F15730"/>
	</linearGradient>
	<circle class="st2" cx="436.45" cy="527.98" r="97.81"/>
</g>
<g id="Layer_4">
	<path class="st3" d="M436.45,436.93c0-3.3,0,15.34,0,13.18"/>
	<path class="st3" d="M436.45,604.24c0-3.3,0,15.34,0,13.18"/>
	<path class="st3" d="M526.94,527.72c3.3,0-15.34,0-13.18,0"/>
	<path class="st3" d="M358.94,528.48c3.3,0-15.34,0-13.18,0"/>
	<path class="st3" d="M369.19,488.73c2.85,1.65-13.28-7.68-11.41-6.6"/>
	<path class="st3" d="M397.99,594.87c1.65-2.86-7.66,13.29-6.58,11.42"/>
	<path class="st3" d="M515.61,482.6c2.85-1.65-13.29,7.67-11.42,6.59"/>
	<path class="st3" d="M368.98,566.75c2.85-1.65-13.29,7.67-11.42,6.59"/>
	<path class="st3" d="M430.64,518.68c7.21,12.51-33.58-58.24-28.86-50.04"/>
	<path class="st3" d="M436.45,518.94c0,10.31,0-48.01,0-41.25"/>
	<circle class="st4" cx="436.45" cy="527.72" r="9.75"/>
	<path class="st3" d="M482.49,448.37c1.65-2.86-7.66,13.29-6.58,11.42"/>
	<path class="st3" d="M515.61,572.73c2.85,1.65-13.28-7.68-11.41-6.6"/>
	<path class="st3" d="M481.33,606.31c1.44,2.97-6.7-13.8-5.76-11.86"/>
	<path class="st3" d="M396.83,459.81c1.44,2.96-6.7-13.8-5.76-11.86"/>
</g>
<g id="Layer_9">
	<path class="st5" d="M454.42,397.06c-8.55-1.04-18.93-1.19-27.65-0.39c-28.02-106.33-36.44-168.5-36.44-168.5s0.02,0,0.05,0   c1.81-0.09,52.19-2.43,52.62,10.77c0.1,3.13,0.21,6.24,0.33,9.34C445.89,317.17,452.12,375.14,454.42,397.06z"/>
	<path class="st5" d="M587.16,205.03l-6.33,27.93c-35.88,0.76-96.55,7.52-138.83,12.74c-27.56,3.4-47.32,6.15-47.32,6.15   l-5.63-26.26l-0.05-0.22C389,225.37,510.45,206.45,587.16,205.03z"/>
	<path class="st5" d="M577.31,309.71c0,0-1.63,5.94-4.7,15.78c-7.21,23.17-21.78,67.38-42.28,107.12   c-4.19-4.05-8.95-7.81-13.63-11.29L540,300.23L577.31,309.71z"/>
	<path class="st5" d="M644.66,414.54c0,0-0.99,1.32-3.63,4.45c-7.33,8.71-27.46,31.46-74.69,78.88c-1.39-6.55-3.33-12.92-5.75-19.06   c38.88-44.73,64.78-87.91,64.78-87.91l0.54,0.66L644.66,414.54z"/>
	<path class="st5" d="M667.5,520.17l-8.09,5.98l-123.68,91.44h-6.55c17.05-17.05,17.31-19.81,29.28-42.8l98.06-81.72l0.22,0.53   L667.5,520.17z"/>
	<path class="st5" d="M753.76,590.61c-1.85,8.25-4.02,16.52-6.53,24.79c-29.18-47.93-69.4-77.43-87.82-89.25   c-6.21-4-9.95-5.98-9.95-5.98l7.28-26.57l0.28-1.03C657.02,492.57,714.59,526.01,753.76,590.61z"/>
	<path class="st5" d="M759.73,485.12c-55.4-46.2-98.97-61.24-118.7-66.13c-7.29-1.8-11.26-2.19-11.26-2.19l-3.86-25.24l-0.18-1.16   c0,0,60.72,7.63,127.4,54.71C756.31,458.36,758.31,471.36,759.73,485.12z"/>
	<path class="st5" d="M706.19,339.72c-47.78-16.96-101.21-16.66-133.58-14.23c-18.31,1.37-29.89,3.43-29.89,3.43L540,300.23   c0,0,60.87-7.4,137,3.48C687.65,315.05,697.4,327.08,706.19,339.72z"/>
</g>
</svg>