<svg width="858" height="204" viewBox="0 0 858 204" fill="none" xmlns="http://www.w3.org/2000/svg">
<path d="M82.97 204L0 102.965L95.8336 0V27.6719H730.651L719.073 171.823H82.97V204Z" fill="url(#paint0_linear_231_269)"/>
<path d="M758.307 171.823H730.651L742.228 27.6719H771.814L758.307 171.823Z" fill="url(#paint1_linear_231_269)"/>
<path d="M793.682 171.823H771.814L782.748 27.6719H805.903L793.682 171.823Z" fill="url(#paint2_linear_231_269)"/>
<path d="M823.268 171.823H805.903L817.48 27.6719H834.202L823.268 171.823Z" fill="url(#paint3_linear_231_269)"/>
<path d="M845.78 171.823H834.202L845.78 27.6719H858L845.78 171.823Z" fill="url(#paint4_linear_231_269)"/>
<defs>
<linearGradient id="paint0_linear_231_269" x1="0" y1="101.678" x2="876.009" y2="101.678" gradientUnits="userSpaceOnUse">
<stop stop-color="#C0015D"/>
<stop offset="0.822917" stop-color="#E44A9E"/>
<stop offset="1" stop-color="#D9D9D9" stop-opacity="0"/>
</linearGradient>
<linearGradient id="paint1_linear_231_269" x1="0" y1="101.678" x2="876.009" y2="101.678" gradientUnits="userSpaceOnUse">
<stop stop-color="#C0015D"/>
<stop offset="0.822917" stop-color="#E44A9E"/>
<stop offset="1" stop-color="#D9D9D9" stop-opacity="0"/>
</linearGradient>
<linearGradient id="paint2_linear_231_269" x1="0" y1="101.678" x2="876.009" y2="101.678" gradientUnits="userSpaceOnUse">
<stop stop-color="#C0015D"/>
<stop offset="0.822917" stop-color="#E44A9E"/>
<stop offset="1" stop-color="#D9D9D9" stop-opacity="0"/>
</linearGradient>
<linearGradient id="paint3_linear_231_269" x1="0" y1="101.678" x2="876.009" y2="101.678" gradientUnits="userSpaceOnUse">
<stop stop-color="#C0015D"/>
<stop offset="0.822917" stop-color="#E44A9E"/>
<stop offset="1" stop-color="#D9D9D9" stop-opacity="0"/>
</linearGradient>
<linearGradient id="paint4_linear_231_269" x1="0" y1="101.678" x2="876.009" y2="101.678" gradientUnits="userSpaceOnUse">
<stop stop-color="#C0015D"/>
<stop offset="0.822917" stop-color="#E44A9E"/>
<stop offset="1" stop-color="#D9D9D9" stop-opacity="0"/>
</linearGradient>
</defs>
</svg>
