<svg xmlns="http://www.w3.org/2000/svg" xmlns:xlink="http://www.w3.org/1999/xlink" version="1.1" x="0px" y="0px" style="enable-background:new 0 0 1080 1080;" xml:space="preserve" viewBox="17.22 277.79 1029.43 444">
<style type="text/css">
	.st0{display:none;}
	.st1{fill:url(#SVGID_1_);}
	.st2{fill:#EF3734;}
	.st3{fill:url(#SVGID_2_);}
	.st4{fill:none;stroke:#FFFFFF;stroke-width:5;stroke-miterlimit:10;}
	.st5{fill:#FFFFFF;stroke:#FFFFFF;stroke-width:5;stroke-miterlimit:10;}
	.st6{fill:#FFFFFF;stroke:#FFFFFF;stroke-miterlimit:10;}
	.st7{display:none;fill:none;}
</style>
<g id="Layer_1" class="st0">
</g>
<g id="Layer_2">
	<linearGradient id="SVGID_1_" gradientUnits="userSpaceOnUse" x1="17.219" y1="496.551" x2="367.219" y2="496.551">
		<stop offset="0" style="stop-color:#EB2646"/>
		<stop offset="1" style="stop-color:#F15730"/>
	</linearGradient>
	<path class="st1" d="M17.22,599.98l84.31-322.19l139.08,60.55l-16.57,72.8c17.17,8.17,88.63,44.55,124.3,130.64   c33.96,81.94,12.98,154.55,6.85,173.53H183.27c29.16-28.68,39.22-71.31,25.63-108.66c-15.54-42.73-58.15-67.9-100.52-66.49   C69.91,541.44,34.85,564.51,17.22,599.98z"/>
	<g>
		<path class="st2" d="M390.08,514.66V341.79c0-12.97,5.81-20.07,16.42-20.07h21.98c10.61,0,16.42,7.1,16.42,20.07v50.32    c0,4.01,1.77,6.17,5.05,6.17h33.86c3.28,0,5.05-2.16,5.05-6.17v-50.32c0-12.97,5.81-20.07,16.42-20.07h21.98    c10.61,0,16.42,7.1,16.42,20.07v172.87c0,12.97-5.81,20.07-16.42,20.07H505.3c-10.61,0-16.42-7.1-16.42-20.07v-63.28    c0-4.01-1.77-6.17-5.05-6.17h-33.86c-3.28,0-5.05,2.16-5.05,6.17v63.28c0,12.97-5.81,20.07-16.42,20.07h-21.98    C395.9,534.73,390.08,527.63,390.08,514.66z"/>
		<path class="st2" d="M560.13,512.19l37.65-162.99c4.3-18.52,13.9-27.47,29.56-27.47h32.09c15.67,0,25.27,8.95,29.56,27.47    l37.65,162.99c3.28,13.89-2.02,22.54-13.9,22.54h-21.98c-9.85,0-15.67-5.87-17.94-17.6l-4.29-23.15c-0.76-3.4-2.53-5.25-5.56-5.25    H623.8c-3.03,0-4.8,1.85-5.56,5.25l-4.3,23.15c-2.27,11.73-8.08,17.6-17.94,17.6h-21.98    C562.15,534.73,556.84,526.09,560.13,512.19z M652.86,441.81c3.54,0,5.05-2.47,4.3-6.79l-7.33-38.9    c-1.01-5.87-2.02-12.35-2.53-18.52c-0.5-4.01-1.77-5.87-3.79-5.87h-0.25c-2.02,0-3.54,2.16-3.79,5.87    c-0.76,6.17-1.52,12.66-2.53,18.52l-7.33,38.9c-0.76,4.32,0.76,6.79,4.29,6.79H652.86z"/>
		<path class="st2" d="M735.74,428.23c0-81.19,21.22-110.21,79.08-110.21c19.2,0,31.08,1.23,42.45,4.01    c10.11,2.47,14.4,10.5,13.39,22.84l-1.01,11.11c-1.01,12.66-6.82,19.14-17.18,18.83c-10.61-0.31-21.22-0.31-37.65-0.31    c-17.18,0-21.48,10.5-21.48,53.71c0,43.22,4.29,53.71,21.48,53.71s29.56,0,40.93-0.93c10.61-0.62,16.68,5.25,17.69,18.21    l1.01,10.8c1.01,12.04-3.03,20.37-12.89,23.15c-12.89,3.7-26.78,5.25-46.74,5.25C756.96,538.43,735.74,509.42,735.74,428.23z"/>
		<path class="st2" d="M893.15,514.66V341.79c0-12.97,5.81-20.07,16.42-20.07h21.98c10.61,0,16.42,7.1,16.42,20.07v33.65    c0,6.48-0.5,13.58-1.26,20.37c-0.76,4.32,0.5,6.79,3.54,6.79h0.76c2.78,0,4.55-1.23,6.06-4.32l28.05-62.36    c4.3-9.88,10.36-14.2,19.46-14.2h22.74c13.39,0,17.94,10.19,11.37,24.08l-28.55,59.27c-3.29,7.41-7.33,12.04-11.12,15.74    c-3.03,2.47-2.78,4.63,0,7.41c4.8,4.32,10.11,11.11,13.14,17.9l29.56,64.52c6.57,13.89,1.52,24.08-11.37,24.08h-25.01    c-9.35,0-15.16-4.63-19.46-14.51l-29.06-70.08c-1.26-3.09-2.27-4.32-5.05-4.32h-1.26c-3.03,0.31-4.04,2.78-3.54,6.79    c0.76,4.32,1.01,8.64,1.01,12.66v49.39c0,12.97-5.81,20.07-16.42,20.07h-21.98C898.96,534.73,893.15,527.63,893.15,514.66z"/>
	</g>
	<g>
		<path class="st2" d="M393.62,688.18V576.53c0-8.37,3.21-12.96,9.08-12.96h12.15c5.87,0,9.08,4.59,9.08,12.96v32.5    c0,2.59,0.98,3.99,2.79,3.99h18.72c1.82,0,2.79-1.4,2.79-3.99v-32.5c0-8.37,3.21-12.96,9.08-12.96h12.15    c5.87,0,9.08,4.59,9.08,12.96v111.65c0,8.37-3.21,12.96-9.08,12.96h-12.15c-5.87,0-9.08-4.59-9.08-12.96v-40.87    c0-2.59-0.98-3.99-2.79-3.99h-18.72c-1.82,0-2.79,1.4-2.79,3.99v40.87c0,8.37-3.21,12.96-9.08,12.96H402.7    C396.83,701.14,393.62,696.55,393.62,688.18z"/>
		<path class="st2" d="M487.64,686.58l20.82-105.27c2.38-11.96,7.68-17.74,16.35-17.74h17.74c8.66,0,13.97,5.78,16.35,17.74    l20.82,105.27c1.82,8.97-1.12,14.55-7.68,14.55h-12.16c-5.45,0-8.66-3.79-9.92-11.36l-2.38-14.95c-0.42-2.19-1.4-3.39-3.07-3.39    h-21.65c-1.68,0-2.65,1.2-3.07,3.39l-2.38,14.95c-1.26,7.58-4.47,11.36-9.92,11.36h-12.15    C488.76,701.14,485.83,695.56,487.64,686.58z M538.92,641.13c1.96,0,2.79-1.59,2.38-4.39l-4.05-25.12    c-0.56-3.79-1.12-7.97-1.4-11.96c-0.28-2.59-0.98-3.79-2.1-3.79h-0.14c-1.12,0-1.96,1.4-2.1,3.79c-0.42,3.99-0.84,8.17-1.4,11.96    l-4.05,25.12c-0.42,2.79,0.42,4.39,2.38,4.39H538.92z"/>
		<path class="st2" d="M588.66,688.18V575.93c0-8.17,2.93-12.76,8.66-13.36c8.94-0.8,17.6-1,32.27-1c28.36,0,40.66,9.77,40.66,41.87    c0,15.75-4.19,27.51-17.04,31.9c-1.82,0.6-1.96,2.19-0.14,2.79c5.17,1.99,11.46,6.78,13.41,20.73l5.03,27.91    c1.54,8.97-1.4,14.35-7.96,14.35h-12.99c-5.59,0-8.8-3.79-10.06-11.36l-4.47-29.51c-1.12-7.58-3.07-9.37-8.24-9.37h-6.57    c-1.82,0-2.79,1.4-2.79,3.99v33.29c0,8.37-3.21,12.96-9.08,12.96h-11.6C591.87,701.14,588.66,696.55,588.66,688.18z     M628.89,620.39c8.66,0,10.9-2.79,10.9-14.16s-2.24-14.16-10.9-14.16h-7.68c-1.82,0-2.79,1.4-2.79,3.99v20.34    c0,2.59,0.98,3.99,2.79,3.99H628.89z"/>
		<path class="st2" d="M696.26,682.8l-19.28-104.47c-1.7-9.15,1.38-14.75,7.94-14.75h12.72c5.56,0,8.97,3.87,10.07,11.96    l10.48,76.76c0.47,3.79,0.8,8.19,1.26,12.16c0.28,2.39,1.01,3.7,2.12,3.7c1.11,0,1.64-1.27,1.93-3.9    c0.42-3.79,1.02-8.1,1.54-11.76l10.34-77.16c1.11-7.95,4.58-11.76,10.14-11.76h12.72c6.56,0,9.68,5.69,8.02,14.75L747.12,682.8    c-2.27,12.38-7.71,18.34-16.66,18.34h-17.6C703.91,701.14,698.54,695.24,696.26,682.8z"/>
		<path class="st2" d="M764.98,686.58l20.82-105.27c2.38-11.96,7.68-17.74,16.35-17.74h17.74c8.66,0,13.97,5.78,16.35,17.74    l20.82,105.27c1.82,8.97-1.12,14.55-7.68,14.55h-12.15c-5.45,0-8.66-3.79-9.92-11.36l-2.38-14.95c-0.42-2.19-1.4-3.39-3.07-3.39    h-21.66c-1.68,0-2.65,1.2-3.07,3.39l-2.38,14.95c-1.26,7.58-4.47,11.36-9.92,11.36h-12.16    C766.09,701.14,763.16,695.56,764.98,686.58z M816.25,641.13c1.96,0,2.79-1.59,2.38-4.39l-4.05-25.12    c-0.56-3.79-1.12-7.97-1.4-11.96c-0.28-2.59-0.98-3.79-2.1-3.79h-0.14c-1.12,0-1.96,1.4-2.1,3.79c-0.42,3.99-0.84,8.17-1.4,11.96    l-4.05,25.12c-0.42,2.79,0.42,4.39,2.38,4.39H816.25z"/>
		<path class="st2" d="M865.99,688.18V575.93c0-8.17,2.93-12.76,8.66-13.36c8.94-0.8,17.6-1,32.27-1c28.36,0,40.66,9.77,40.66,41.87    c0,15.75-4.19,27.51-17.04,31.9c-1.82,0.6-1.96,2.19-0.14,2.79c5.17,1.99,11.46,6.78,13.41,20.73l5.03,27.91    c1.54,8.97-1.4,14.35-7.96,14.35h-12.99c-5.59,0-8.8-3.79-10.06-11.36l-4.47-29.51c-1.12-7.58-3.07-9.37-8.24-9.37h-6.57    c-1.82,0-2.79,1.4-2.79,3.99v33.29c0,8.37-3.21,12.96-9.08,12.96h-11.6C869.21,701.14,865.99,696.55,865.99,688.18z     M906.23,620.39c8.66,0,10.9-2.79,10.9-14.16s-2.24-14.16-10.9-14.16h-7.68c-1.82,0-2.79,1.4-2.79,3.99v20.34    c0,2.59,0.98,3.99,2.79,3.99H906.23z"/>
		<path class="st2" d="M969.24,701.94c-5.87-0.4-8.8-5.18-8.8-13.36V576.13c0-8.17,2.38-12.76,6.99-13.16    c10.2-0.8,20.82-1.4,34.23-1.4c33.11,0,44.99,14.95,44.99,70.78s-11.88,70.78-44.99,70.78    C989.36,703.13,978.88,702.73,969.24,701.94z M1014.64,632.35c0-31.9-2.65-39.48-12.99-39.48h-8.1c-1.82,0-2.79,1.4-2.79,3.99    v70.78c0,2.59,0.98,3.99,2.79,4.19h8.1C1011.99,671.83,1014.64,664.25,1014.64,632.35z"/>
	</g>
	<linearGradient id="SVGID_2_" gradientUnits="userSpaceOnUse" x1="32.5799" y1="644.4199" x2="187.2912" y2="644.4199">
		<stop offset="0" style="stop-color:#EB2646"/>
		<stop offset="1" style="stop-color:#F15730"/>
	</linearGradient>
	<ellipse class="st3" cx="109.94" cy="644.42" rx="77.36" ry="77.37"/>
</g>
<g id="Layer_4">
	<path class="st4" d="M109.94,572.39c0-2.61,0,12.14,0,10.43"/>
	<path class="st4" d="M109.94,704.74c0-2.61,0,12.14,0,10.43"/>
	<path class="st4" d="M181.49,644.21c2.61,0-12.13,0-10.43,0"/>
	<path class="st4" d="M48.63,644.82c2.61,0-12.13,0-10.43,0"/>
	<path class="st4" d="M56.74,613.37c2.26,1.31-10.5-6.08-9.03-5.22"/>
	<path class="st4" d="M79.51,697.33c1.3-2.26-6.06,10.51-5.21,9.04"/>
	<path class="st4" d="M172.54,608.52c2.26-1.3-10.51,6.06-9.03,5.21"/>
	<path class="st4" d="M56.57,675.09c2.26-1.3-10.51,6.06-9.03,5.21"/>
	<path class="st4" d="M105.34,637.06c5.71,9.9-26.56-46.07-22.82-39.59"/>
	<path class="st4" d="M109.94,637.27c0,8.16,0-37.98,0-32.63"/>
	<circle class="st5" cx="109.94" cy="644.21" r="7.71"/>
	<path class="st4" d="M146.34,581.44c1.3-2.26-6.06,10.51-5.21,9.04"/>
	<path class="st4" d="M172.54,679.82c2.26,1.31-10.5-6.08-9.03-5.22"/>
	<path class="st4" d="M145.43,706.38c1.14,2.35-5.3-10.92-4.55-9.38"/>
	<path class="st4" d="M78.6,590.5c1.14,2.35-5.3-10.92-4.55-9.38"/>
</g>
<g id="Layer_9">
	<path class="st6" d="M124.15,540.85c-6.76-0.82-14.97-0.94-21.87-0.3c-22.16-84.11-28.82-133.29-28.82-133.29s0.02,0,0.04,0   c1.43-0.07,41.27-1.92,41.61,8.52c0.08,2.48,0.17,4.94,0.26,7.39C117.4,477.65,122.33,523.51,124.15,540.85z"/>
	<path class="st6" d="M229.12,388.95l-5.01,22.09c-28.38,0.6-76.36,5.95-109.79,10.08c-21.8,2.69-37.42,4.86-37.42,4.86l-4.45-20.77   l-0.04-0.17C72.41,405.04,168.46,390.07,229.12,388.95z"/>
	<path class="st6" d="M221.33,471.76c0,0-1.29,4.7-3.72,12.48c-5.7,18.33-17.23,53.3-33.44,84.74c-3.31-3.2-7.07-6.18-10.78-8.93   l18.42-95.79L221.33,471.76z"/>
	<path class="st6" d="M274.6,554.68c0,0-0.78,1.04-2.87,3.52c-5.8,6.89-21.72,24.89-59.07,62.4c-1.1-5.18-2.63-10.22-4.55-15.08   c30.75-35.38,51.23-69.54,51.23-69.54l0.43,0.52L274.6,554.68z"/>
	<path class="st6" d="M292.66,638.24l-6.4,4.73l-97.81,72.33h-5.18c13.48-13.49,13.69-15.67,23.16-33.85l77.55-64.65l0.17,0.42   L292.66,638.24z"/>
	<path class="st6" d="M360.88,693.96c-1.46,6.53-3.18,13.07-5.16,19.61c-23.08-37.92-54.89-61.25-69.45-70.6   c-4.91-3.16-7.87-4.73-7.87-4.73l5.76-21.02l0.22-0.81C284.37,616.41,329.9,642.86,360.88,693.96z"/>
	<path class="st6" d="M365.6,610.51c-43.81-36.55-78.27-48.44-93.87-52.31c-5.77-1.42-8.91-1.73-8.91-1.73l-3.05-19.97l-0.14-0.92   c0,0,48.02,6.04,100.76,43.28C362.9,589.35,364.48,599.63,365.6,610.51z"/>
	<path class="st6" d="M323.26,495.49c-37.79-13.42-80.04-13.18-105.64-11.26c-14.48,1.08-23.64,2.71-23.64,2.71l-2.15-22.7   c0,0,48.14-5.85,108.35,2.75C308.6,475.98,316.31,485.5,323.26,495.49z"/>
</g>
</svg>