<svg width="858" height="204" viewBox="0 0 858 204" fill="none" xmlns="http://www.w3.org/2000/svg">
<path d="M775.03 0L858 101.035L762.166 204V176.328L127.349 176.328L138.927 32.1767L775.03 32.1767V0Z" fill="url(#paint0_linear_231_270)"/>
<path d="M99.6927 32.1767H127.349L115.772 176.328H86.1859L99.6927 32.1767Z" fill="url(#paint1_linear_231_270)"/>
<path d="M64.3179 32.1767H86.1859L75.2519 176.328L52.0975 176.328L64.3179 32.1767Z" fill="url(#paint2_linear_231_270)"/>
<path d="M34.7316 32.1767L52.0975 32.1767L40.5203 176.328H23.7976L34.7316 32.1767Z" fill="url(#paint3_linear_231_270)"/>
<path d="M12.2204 32.1767H23.7976L12.2204 176.328H0L12.2204 32.1767Z" fill="url(#paint4_linear_231_270)"/>
<defs>
<linearGradient id="paint0_linear_231_270" x1="858" y1="102.322" x2="-18.009" y2="102.322" gradientUnits="userSpaceOnUse">
<stop stop-color="#C0015D"/>
<stop offset="0.822917" stop-color="#E44A9E"/>
<stop offset="1" stop-color="#D9D9D9" stop-opacity="0"/>
</linearGradient>
<linearGradient id="paint1_linear_231_270" x1="858" y1="102.322" x2="-18.009" y2="102.322" gradientUnits="userSpaceOnUse">
<stop stop-color="#C0015D"/>
<stop offset="0.822917" stop-color="#E44A9E"/>
<stop offset="1" stop-color="#D9D9D9" stop-opacity="0"/>
</linearGradient>
<linearGradient id="paint2_linear_231_270" x1="858" y1="102.322" x2="-18.009" y2="102.322" gradientUnits="userSpaceOnUse">
<stop stop-color="#C0015D"/>
<stop offset="0.822917" stop-color="#E44A9E"/>
<stop offset="1" stop-color="#D9D9D9" stop-opacity="0"/>
</linearGradient>
<linearGradient id="paint3_linear_231_270" x1="858" y1="102.322" x2="-18.009" y2="102.322" gradientUnits="userSpaceOnUse">
<stop stop-color="#C0015D"/>
<stop offset="0.822917" stop-color="#E44A9E"/>
<stop offset="1" stop-color="#D9D9D9" stop-opacity="0"/>
</linearGradient>
<linearGradient id="paint4_linear_231_270" x1="858" y1="102.322" x2="-18.009" y2="102.322" gradientUnits="userSpaceOnUse">
<stop stop-color="#C0015D"/>
<stop offset="0.822917" stop-color="#E44A9E"/>
<stop offset="1" stop-color="#D9D9D9" stop-opacity="0"/>
</linearGradient>
</defs>
</svg>
