<svg width="1525" height="974" viewBox="0 0 1525 974" fill="none" xmlns="http://www.w3.org/2000/svg">
<path d="M197.528 935.156C196.813 935.156 196.153 934.775 195.795 934.156L184.45 914.506C184.093 913.887 184.093 913.124 184.45 912.506L195.795 892.855C196.153 892.236 196.813 891.855 197.528 891.855L220.218 891.855C220.933 891.855 221.593 892.236 221.95 892.855L233.295 912.506C233.653 913.124 233.653 913.887 233.295 914.506L221.95 934.156C221.593 934.775 220.933 935.156 220.218 935.156L197.528 935.156Z" fill="#5E2B9E"/>
<path d="M240.854 910.205C240.139 910.205 239.479 909.824 239.122 909.205L227.776 889.554C227.419 888.936 227.419 888.173 227.776 887.554L239.122 867.904C239.479 867.285 240.139 866.904 240.854 866.904L263.544 866.904C264.259 866.904 264.919 867.285 265.276 867.904L276.622 887.554C276.979 888.173 276.979 888.936 276.622 889.554L265.276 909.205C264.919 909.824 264.259 910.205 263.544 910.205L240.854 910.205Z" fill="#C0015D"/>
<path d="M283.942 885.36C283.227 885.36 282.567 884.979 282.21 884.36L270.864 864.71C270.507 864.091 270.507 863.329 270.864 862.71L282.21 843.059C282.567 842.44 283.227 842.059 283.942 842.059L306.632 842.059C307.347 842.059 308.007 842.44 308.364 843.059L319.71 862.71C320.067 863.329 320.067 864.091 319.71 864.71L308.364 884.36C308.007 884.979 307.347 885.36 306.632 885.36L283.942 885.36Z" fill="#D80034"/>
<path d="M240.627 960.811C239.913 960.811 239.252 960.429 238.895 959.811L227.55 940.16C227.192 939.541 227.192 938.779 227.55 938.16L238.895 918.509C239.252 917.89 239.913 917.509 240.627 917.509L263.318 917.509C264.032 917.509 264.692 917.89 265.05 918.509L276.395 938.16C276.752 938.779 276.752 939.541 276.395 940.16L265.05 959.811C264.692 960.429 264.032 960.811 263.318 960.811L240.627 960.811Z" fill="#D80034"/>
<path d="M240.57 809.967C239.856 809.967 239.196 809.586 238.838 808.967L227.493 789.316C227.136 788.697 227.136 787.935 227.493 787.316L238.838 767.666C239.196 767.047 239.856 766.666 240.57 766.666L263.261 766.666C263.976 766.666 264.636 767.047 264.993 767.666L276.338 787.316C276.696 787.935 276.696 788.697 276.338 789.316L264.993 808.967C264.636 809.586 263.976 809.967 263.261 809.967L240.57 809.967Z" fill="#D80034"/>
<path d="M196.807 685.801C196.092 685.801 195.432 685.42 195.075 684.801L183.729 665.15C183.372 664.531 183.372 663.769 183.729 663.15L195.075 643.5C195.432 642.881 196.092 642.5 196.807 642.5L219.497 642.5C220.212 642.5 220.872 642.881 221.229 643.5L232.575 663.15C232.932 663.769 232.932 664.531 232.575 665.15L221.229 684.801C220.872 685.42 220.212 685.801 219.497 685.801L196.807 685.801Z" fill="#D80034"/>
<path d="M283.895 785.016C283.18 785.016 282.52 784.634 282.163 784.016L270.817 764.365C270.46 763.746 270.46 762.984 270.817 762.365L282.163 742.714C282.52 742.096 283.18 741.714 283.895 741.714L306.585 741.714C307.3 741.714 307.96 742.096 308.317 742.714L319.663 762.365C320.02 762.984 320.02 763.746 319.663 764.365L308.317 784.016C307.96 784.634 307.3 785.016 306.585 785.016L283.895 785.016Z" fill="#C0015D"/>
<path d="M240.58 860.467C239.866 860.467 239.205 860.086 238.848 859.467L227.503 839.816C227.146 839.197 227.146 838.435 227.503 837.816L238.848 818.166C239.205 817.547 239.866 817.166 240.58 817.166L263.271 817.166C263.985 817.166 264.646 817.547 265.003 818.166L276.348 837.816C276.705 838.435 276.705 839.197 276.348 839.816L265.003 859.467C264.646 860.086 263.985 860.467 263.271 860.467L240.58 860.467Z" fill="#5E2B9E"/>
<path d="M66.8068 760.801C66.0923 760.801 65.432 760.42 65.0747 759.801L53.7295 740.15C53.3722 739.531 53.3722 738.769 53.7295 738.15L65.0747 718.5C65.432 717.881 66.0923 717.5 66.8068 717.5L89.4974 717.5C90.2119 717.5 90.8722 717.881 91.2294 718.5L102.575 738.15C102.932 738.769 102.932 739.531 102.575 740.15L91.2294 759.801C90.8722 760.42 90.2119 760.801 89.4974 760.801L66.8068 760.801Z" fill="#5E2B9E"/>
<path d="M283.67 835.622C282.956 835.622 282.295 835.241 281.938 834.622L270.593 814.971C270.235 814.353 270.235 813.59 270.593 812.971L281.938 793.321C282.295 792.702 282.956 792.321 283.67 792.321L306.361 792.321C307.075 792.321 307.735 792.702 308.093 793.321L319.438 812.971C319.795 813.59 319.795 814.353 319.438 814.971L308.093 834.622C307.735 835.241 307.075 835.622 306.361 835.622L283.67 835.622Z" fill="#C0015D"/>
<path d="M153.893 860.524C153.178 860.524 152.518 860.143 152.161 859.524L140.815 839.874C140.458 839.255 140.458 838.493 140.815 837.874L152.161 818.223C152.518 817.604 153.178 817.223 153.893 817.223L176.583 817.223C177.298 817.223 177.958 817.604 178.315 818.223L189.661 837.874C190.018 838.493 190.018 839.255 189.661 839.874L178.315 859.524C177.958 860.143 177.298 860.524 176.583 860.524L153.893 860.524Z" fill="#D80034"/>
<path d="M433.805 866.801C433.09 866.801 432.43 866.42 432.073 865.801L420.727 846.15C420.37 845.531 420.37 844.769 420.727 844.15L432.073 824.5C432.43 823.881 433.09 823.5 433.805 823.5L456.495 823.5C457.21 823.5 457.87 823.881 458.227 824.5L469.573 844.15C469.93 844.769 469.93 845.531 469.573 846.15L458.227 865.801C457.87 866.42 457.21 866.801 456.495 866.801L433.805 866.801Z" fill="#D80034"/>
<path d="M153.903 911.023C153.188 911.023 152.528 910.642 152.17 910.023L140.825 890.373C140.468 889.754 140.468 888.992 140.825 888.373L152.17 868.722C152.528 868.103 153.188 867.722 153.903 867.722L176.593 867.722C177.308 867.722 177.968 868.103 178.325 868.722L189.67 888.373C190.028 888.992 190.028 889.754 189.67 890.373L178.325 910.023C177.968 910.642 177.308 911.023 176.593 911.023L153.903 911.023Z" fill="#C0015D"/>
<path d="M196.992 886.179C196.278 886.179 195.618 885.798 195.26 885.179L183.915 865.528C183.558 864.909 183.558 864.147 183.915 863.528L195.26 843.877C195.618 843.259 196.278 842.877 196.992 842.877L219.683 842.877C220.397 842.877 221.058 843.259 221.415 843.877L232.76 863.528C233.118 864.147 233.118 864.909 232.76 865.528L221.415 885.179C221.058 885.798 220.397 886.179 219.683 886.179L196.992 886.179Z" fill="#D80034"/>
<path d="M154.176 960.762C153.461 960.762 152.801 960.381 152.444 959.762L141.099 940.111C140.741 939.492 140.741 938.73 141.099 938.111L152.444 918.46C152.801 917.842 153.461 917.46 154.176 917.46L176.867 917.46C177.581 917.46 178.241 917.842 178.599 918.46L189.944 938.111C190.301 938.73 190.301 939.492 189.944 940.111L178.599 959.762C178.241 960.381 177.581 960.762 176.867 960.762L154.176 960.762Z" fill="#D80034"/>
<path d="M110.436 634.941C109.721 634.941 109.061 634.56 108.704 633.941L97.3584 614.291C97.0011 613.672 97.0011 612.91 97.3584 612.291L108.704 592.64C109.061 592.021 109.721 591.64 110.436 591.64L133.126 591.64C133.841 591.64 134.501 592.021 134.858 592.64L146.204 612.291C146.561 612.91 146.561 613.672 146.204 614.291L134.858 633.941C134.501 634.56 133.841 634.941 133.126 634.941L110.436 634.941Z" fill="#5E2B9E"/>
<path d="M153.76 609.99C153.045 609.99 152.385 609.609 152.028 608.99L140.683 589.34C140.325 588.721 140.325 587.958 140.683 587.34L152.028 567.689C152.385 567.07 153.045 566.689 153.76 566.689L176.451 566.689C177.165 566.689 177.825 567.07 178.183 567.689L189.528 587.34C189.885 587.958 189.885 588.721 189.528 589.34L178.183 608.99C177.825 609.609 177.165 609.99 176.451 609.99L153.76 609.99Z" fill="#C0015D"/>
<path d="M110.445 685.441C109.731 685.441 109.071 685.06 108.713 684.441L97.3681 664.791C97.0109 664.172 97.0109 663.41 97.3681 662.791L108.713 643.14C109.071 642.521 109.731 642.14 110.445 642.14L133.136 642.14C133.851 642.14 134.511 642.521 134.868 643.14L146.213 662.791C146.571 663.41 146.571 664.172 146.213 664.791L134.868 684.441C134.511 685.06 133.851 685.441 133.136 685.441L110.445 685.441Z" fill="#C0015D"/>
<path d="M196.85 585.146C196.135 585.146 195.475 584.764 195.118 584.146L183.772 564.495C183.415 563.876 183.415 563.114 183.772 562.495L195.118 542.844C195.475 542.225 196.135 541.844 196.85 541.844L219.54 541.844C220.255 541.844 220.915 542.225 221.272 542.844L232.618 562.495C232.975 563.114 232.975 563.876 232.618 564.495L221.272 584.146C220.915 584.764 220.255 585.146 219.54 585.146L196.85 585.146Z" fill="#E44A9E"/>
<path d="M153.535 660.596C152.821 660.596 152.161 660.215 151.803 659.596L140.458 639.945C140.101 639.326 140.101 638.564 140.458 637.945L151.803 618.294C152.161 617.676 152.821 617.294 153.535 617.294L176.226 617.294C176.94 617.294 177.601 617.676 177.958 618.294L189.303 637.945C189.661 638.564 189.661 639.326 189.303 639.945L177.958 659.596C177.601 660.215 176.94 660.596 176.226 660.596L153.535 660.596Z" fill="#D80034"/>
<path d="M153.479 509.752C152.764 509.752 152.104 509.371 151.747 508.752L140.401 489.101C140.044 488.483 140.044 487.72 140.401 487.101L151.747 467.451C152.104 466.832 152.764 466.451 153.479 466.451L176.169 466.451C176.884 466.451 177.544 466.832 177.901 467.451L189.247 487.101C189.604 487.72 189.604 488.483 189.247 489.101L177.901 508.752C177.544 509.371 176.884 509.752 176.169 509.752L153.479 509.752Z" fill="#D80034"/>
<path d="M196.803 484.801C196.088 484.801 195.428 484.42 195.071 483.801L183.726 464.15C183.368 463.531 183.368 462.769 183.726 462.15L195.071 442.5C195.428 441.881 196.088 441.5 196.803 441.5L219.493 441.5C220.208 441.5 220.868 441.881 221.226 442.5L232.571 462.15C232.928 462.769 232.928 463.531 232.571 464.15L221.226 483.801C220.868 484.42 220.208 484.801 219.493 484.801L196.803 484.801Z" fill="#C0015D"/>
<path d="M153.488 560.252C152.774 560.252 152.114 559.871 151.756 559.252L140.411 539.601C140.054 538.983 140.054 538.22 140.411 537.601L151.756 517.951C152.114 517.332 152.774 516.951 153.488 516.951L176.179 516.951C176.894 516.951 177.554 517.332 177.911 517.951L189.256 537.601C189.614 538.22 189.614 538.983 189.256 539.601L177.911 559.252C177.554 559.871 176.894 560.252 176.179 560.252L153.488 560.252Z" fill="#5E2B9E"/>
<path d="M143.805 393.801C143.09 393.801 142.43 393.42 142.073 392.801L130.727 373.15C130.37 372.531 130.37 371.769 130.727 371.15L142.073 351.5C142.43 350.881 143.09 350.5 143.805 350.5L166.495 350.5C167.21 350.5 167.87 350.881 168.227 351.5L179.573 371.15C179.93 371.769 179.93 372.531 179.573 373.15L168.227 392.801C167.87 393.42 167.21 393.801 166.495 393.801L143.805 393.801Z" fill="#5E2B9E"/>
<path d="M196.578 535.407C195.864 535.407 195.204 535.026 194.846 534.407L183.501 514.757C183.144 514.138 183.144 513.375 183.501 512.757L194.846 493.106C195.203 492.487 195.864 492.106 196.578 492.106L219.269 492.106C219.983 492.106 220.644 492.487 221.001 493.106L232.346 512.757C232.703 513.375 232.703 514.138 232.346 514.757L221.001 534.407C220.644 535.026 219.983 535.407 219.269 535.407L196.578 535.407Z" fill="#C0015D"/>
<path d="M66.8009 560.31C66.0864 560.31 65.4262 559.928 65.0689 559.31L53.7236 539.659C53.3663 539.04 53.3663 538.278 53.7236 537.659L65.0689 518.008C65.4262 517.389 66.0864 517.008 66.8009 517.008L89.4915 517.008C90.2061 517.008 90.8663 517.389 91.2236 518.008L102.569 537.659C102.926 538.278 102.926 539.04 102.569 539.659L91.2236 559.31C90.8663 559.928 90.2061 560.31 89.4915 560.31L66.8009 560.31Z" fill="#D80034"/>
<path d="M66.8107 610.809C66.0962 610.809 65.4359 610.427 65.0787 609.809L53.7334 590.158C53.3761 589.539 53.3761 588.777 53.7334 588.158L65.0787 568.507C65.4359 567.889 66.0962 567.507 66.8107 567.507L89.5013 567.507C90.2158 567.507 90.8761 567.889 91.2334 568.507L102.579 588.158C102.936 588.777 102.936 589.539 102.579 590.158L91.2334 609.809C90.8761 610.427 90.2158 610.809 89.5013 610.809L66.8107 610.809Z" fill="#C0015D"/>
<path d="M109.901 585.964C109.186 585.964 108.526 585.583 108.168 584.964L96.8232 565.313C96.4659 564.694 96.4659 563.932 96.8232 563.313L108.168 543.663C108.526 543.044 109.186 542.663 109.901 542.663L132.591 542.663C133.306 542.663 133.966 543.044 134.323 543.663L145.668 563.313C146.026 563.932 146.026 564.694 145.668 565.313L134.323 584.964C133.966 585.583 133.306 585.964 132.591 585.964L109.901 585.964Z" fill="#D80034"/>
<path d="M67.0822 660.547C66.3677 660.547 65.7074 660.166 65.3501 659.547L54.0048 639.896C53.6476 639.277 53.6476 638.515 54.0048 637.896L65.3501 618.246C65.7074 617.627 66.3677 617.246 67.0822 617.246L89.7728 617.246C90.4873 617.246 91.1476 617.627 91.5048 618.246L102.85 637.896C103.207 638.515 103.207 639.277 102.85 639.896L91.5048 659.547C91.1476 660.166 90.4873 660.547 89.7728 660.547L67.0822 660.547Z" fill="#D80034"/>
<path d="M67.4416 860.476C66.727 860.476 66.0668 860.094 65.7095 859.476L54.3642 839.825C54.007 839.206 54.007 838.444 54.3642 837.825L65.7095 818.174C66.0668 817.556 66.727 817.174 67.4416 817.174L90.1322 817.174C90.8467 817.174 91.5069 817.556 91.8642 818.174L103.21 837.825C103.567 838.444 103.567 839.206 103.21 839.825L91.8642 859.476C91.5069 860.094 90.8467 860.476 90.1322 860.476L67.4416 860.476Z" fill="#5E2B9E"/>
<path d="M110.766 835.523C110.051 835.523 109.391 835.142 109.034 834.523L97.6884 814.873C97.3312 814.254 97.3312 813.492 97.6884 812.873L109.034 793.222C109.391 792.603 110.051 792.222 110.766 792.222L133.456 792.222C134.171 792.222 134.831 792.603 135.188 793.222L146.534 812.873C146.891 813.492 146.891 814.254 146.534 814.873L135.188 834.523C134.831 835.142 134.171 835.523 133.456 835.523L110.766 835.523Z" fill="#C0015D"/>
<path d="M67.4513 910.975C66.7368 910.975 66.0765 910.593 65.7193 909.975L54.374 890.324C54.0167 889.705 54.0167 888.943 54.374 888.324L65.7193 868.673C66.0765 868.055 66.7368 867.673 67.4513 867.673L90.1419 867.673C90.8565 867.673 91.5167 868.055 91.874 868.673L103.219 888.324C103.577 888.943 103.577 889.705 103.219 890.324L91.874 909.975C91.5167 910.593 90.8565 910.975 90.1419 910.975L67.4513 910.975Z" fill="#C0015D"/>
<path d="M153.856 810.679C153.141 810.679 152.481 810.298 152.124 809.679L140.778 790.028C140.421 789.409 140.421 788.647 140.778 788.028L152.124 768.377C152.481 767.759 153.141 767.377 153.856 767.377L176.546 767.377C177.261 767.377 177.921 767.759 178.278 768.377L189.624 788.028C189.981 788.647 189.981 789.409 189.624 790.028L178.278 809.679C177.921 810.298 177.261 810.679 176.546 810.679L153.856 810.679Z" fill="#E44A9E"/>
<path d="M110.539 886.13C109.825 886.13 109.164 885.749 108.807 885.13L97.4619 865.479C97.1046 864.86 97.1046 864.098 97.4619 863.479L108.807 843.829C109.164 843.21 109.825 842.829 110.539 842.829L133.23 842.829C133.944 842.829 134.605 843.21 134.962 843.829L146.307 863.479C146.664 864.098 146.664 864.86 146.307 865.479L134.962 885.13C134.605 885.749 133.944 886.13 133.23 886.13L110.539 886.13Z" fill="#D80034"/>
<path d="M110.483 735.286C109.768 735.286 109.108 734.905 108.751 734.286L97.4052 714.635C97.048 714.017 97.048 713.254 97.4052 712.635L108.751 692.985C109.108 692.366 109.768 691.985 110.483 691.985L133.173 691.985C133.888 691.985 134.548 692.366 134.905 692.985L146.251 712.635C146.608 713.254 146.608 714.017 146.251 714.635L134.905 734.286C134.548 734.905 133.888 735.286 133.173 735.286L110.483 735.286Z" fill="#D80034"/>
<path d="M153.807 710.335C153.092 710.335 152.432 709.954 152.075 709.335L140.729 689.684C140.372 689.066 140.372 688.303 140.729 687.684L152.075 668.034C152.432 667.415 153.092 667.034 153.807 667.034L176.497 667.034C177.212 667.034 177.872 667.415 178.229 668.034L189.575 687.684C189.932 688.303 189.932 689.066 189.575 689.684L178.229 709.335C177.872 709.954 177.212 710.335 176.497 710.335L153.807 710.335Z" fill="#C0015D"/>
<path d="M355.805 792.801C355.09 792.801 354.43 792.42 354.073 791.801L342.727 772.15C342.37 771.531 342.37 770.769 342.727 770.15L354.073 750.5C354.43 749.881 355.09 749.5 355.805 749.5L378.495 749.5C379.21 749.5 379.87 749.881 380.227 750.5L391.573 770.15C391.93 770.769 391.93 771.531 391.573 772.15L380.227 791.801C379.87 792.42 379.21 792.801 378.495 792.801L355.805 792.801Z" fill="#C0015D"/>
<path d="M110.492 785.785C109.778 785.785 109.118 785.404 108.76 784.785L97.415 765.135C97.0577 764.516 97.0577 763.753 97.415 763.135L108.76 743.484C109.118 742.865 109.778 742.484 110.492 742.484L133.183 742.484C133.897 742.484 134.558 742.865 134.915 743.484L146.26 763.135C146.618 763.753 146.618 764.516 146.26 765.135L134.915 784.785C134.558 785.404 133.897 785.785 133.183 785.785L110.492 785.785Z" fill="#5E2B9E"/>
<path d="M154.807 760.801C154.092 760.801 153.432 760.42 153.075 759.801L141.729 740.15C141.372 739.531 141.372 738.769 141.729 738.15L153.075 718.5C153.432 717.881 154.092 717.5 154.807 717.5L177.497 717.5C178.212 717.5 178.872 717.881 179.229 718.5L190.575 738.15C190.932 738.769 190.932 739.531 190.575 740.15L179.229 759.801C178.872 760.42 178.212 760.801 177.497 760.801L154.807 760.801Z" fill="#C0015D"/>
<path d="M23.8048 785.843C23.0903 785.843 22.4301 785.462 22.0728 784.843L10.7275 765.192C10.3702 764.573 10.3702 763.811 10.7275 763.192L22.0728 743.542C22.4301 742.923 23.0903 742.542 23.8048 742.542L46.4954 742.542C47.21 742.542 47.8702 742.923 48.2275 743.542L59.5728 763.192C59.9301 763.811 59.9301 764.573 59.5728 765.192L48.2275 784.843C47.8702 785.462 47.21 785.843 46.4954 785.843L23.8048 785.843Z" fill="#D80034"/>
<path d="M23.8146 836.342C23.1001 836.342 22.4398 835.961 22.0826 835.342L10.7373 815.691C10.38 815.072 10.38 814.31 10.7373 813.691L22.0826 794.041C22.4398 793.422 23.1001 793.041 23.8146 793.041L46.5052 793.041C47.2197 793.041 47.88 793.422 48.2373 794.041L59.5826 813.691C59.9398 814.31 59.9398 815.072 59.5826 815.691L48.2373 835.342C47.88 835.961 47.2197 836.342 46.5052 836.342L23.8146 836.342Z" fill="#C0015D"/>
<path d="M66.9045 811.497C66.1899 811.497 65.5297 811.116 65.1724 810.497L53.8271 790.846C53.4698 790.228 53.4698 789.465 53.8271 788.846L65.1724 769.196C65.5297 768.577 66.1899 768.196 66.9045 768.196L89.5951 768.196C90.3096 768.196 90.9698 768.577 91.3271 769.196L102.672 788.846C103.03 789.465 103.03 790.228 102.672 790.846L91.3271 810.497C90.9698 811.116 90.3096 811.497 89.5951 811.497L66.9045 811.497Z" fill="#D80034"/>
<path d="M24.0881 886.081C23.3735 886.081 22.7133 885.7 22.356 885.081L11.0107 865.43C10.6534 864.812 10.6534 864.049 11.0107 863.43L22.356 843.78C22.7133 843.161 23.3735 842.78 24.0881 842.78L46.7786 842.78C47.4932 842.78 48.1534 843.161 48.5107 843.78L59.856 863.43C60.2133 864.049 60.2133 864.812 59.856 865.43L48.5107 885.081C48.1534 885.7 47.4932 886.081 46.7786 886.081L24.0881 886.081Z" fill="#D80034"/>
<path d="M1349.11 75.2617C1349.47 75.8805 1349.47 76.6429 1349.11 77.2617L1337.77 96.9124C1337.41 97.5312 1336.75 97.9124 1336.03 97.9124L1313.34 97.9124C1312.63 97.9124 1311.97 97.5312 1311.61 96.9124L1300.27 77.2617C1299.91 76.6429 1299.91 75.8805 1300.27 75.2617L1311.61 55.6111C1311.97 54.9923 1312.63 54.6111 1313.34 54.6111L1336.03 54.6111C1336.75 54.6111 1337.41 54.9923 1337.77 55.6111L1349.11 75.2617Z" fill="#5E2B9E"/>
<path d="M1306.23 49.5537C1306.59 50.1725 1306.59 50.9349 1306.23 51.5537L1294.89 71.2043C1294.53 71.8231 1293.87 72.2043 1293.16 72.2043L1270.47 72.2043C1269.75 72.2043 1269.09 71.8231 1268.73 71.2043L1257.39 51.5537C1257.03 50.9349 1257.03 50.1725 1257.39 49.5537L1268.73 29.9031C1269.09 29.2843 1269.75 28.9031 1270.47 28.9031L1293.16 28.9031C1293.87 28.9031 1294.53 29.2843 1294.89 29.9031L1306.23 49.5537Z" fill="#C0015D"/>
<path d="M1393.23 50.6787C1393.58 51.2975 1393.58 52.0599 1393.23 52.6787L1381.88 72.3293C1381.52 72.9481 1380.86 73.3293 1380.15 73.3293L1357.46 73.3293C1356.74 73.3293 1356.08 72.9481 1355.73 72.3293L1344.38 52.6787C1344.02 52.0599 1344.02 51.2975 1344.38 50.6787L1355.73 31.0281C1356.08 30.4093 1356.74 30.0281 1357.46 30.0281L1380.15 30.0281C1380.86 30.0281 1381.52 30.4093 1381.88 31.0281L1393.23 50.6787Z" fill="#C0015D"/>
<path d="M1263.56 24C1263.92 24.6188 1263.92 25.3812 1263.56 26L1252.21 45.6506C1251.86 46.2694 1251.2 46.6506 1250.48 46.6506L1227.79 46.6506C1227.08 46.6506 1226.42 46.2694 1226.06 45.6506L1214.71 26C1214.36 25.3812 1214.36 24.6188 1214.71 24L1226.06 4.34937C1226.42 3.73056 1227.08 3.34937 1227.79 3.34937L1250.48 3.34937C1251.2 3.34937 1251.86 3.73056 1252.21 4.34937L1263.56 24Z" fill="#D80034"/>
<path d="M1350.55 25.125C1350.91 25.7438 1350.91 26.5062 1350.55 27.125L1339.21 46.7756C1338.85 47.3944 1338.19 47.7756 1337.47 47.7756L1314.78 47.7756C1314.07 47.7756 1313.41 47.3944 1313.05 46.7756L1301.71 27.125C1301.35 26.5062 1301.35 25.7438 1301.71 25.125L1313.05 5.47437C1313.41 4.85556 1314.07 4.47437 1314.78 4.47437L1337.47 4.47437C1338.19 4.47437 1338.85 4.85556 1339.21 5.47437L1350.55 25.125Z" fill="#D80034"/>
<path d="M1218.8 98.5791C1219.16 99.1979 1219.16 99.9603 1218.8 100.579L1207.45 120.23C1207.1 120.849 1206.44 121.23 1205.72 121.23L1183.03 121.23C1182.32 121.23 1181.66 120.849 1181.3 120.23L1169.95 100.579C1169.6 99.9603 1169.6 99.1979 1169.95 98.5791L1181.3 78.9285C1181.66 78.3097 1182.32 77.9285 1183.03 77.9285L1205.72 77.9285C1206.44 77.9285 1207.1 78.3097 1207.45 78.9285L1218.8 98.5791Z" fill="#D80034"/>
<path d="M1175.92 72.8711C1176.28 73.4899 1176.28 74.2523 1175.92 74.8711L1164.58 94.5217C1164.22 95.1405 1163.56 95.5217 1162.84 95.5217L1140.15 95.5217C1139.44 95.5217 1138.78 95.1405 1138.42 94.5217L1127.08 74.8711C1126.72 74.2523 1126.72 73.4899 1127.08 72.8711L1138.42 53.2205C1138.78 52.6017 1139.44 52.2205 1140.15 52.2205L1162.84 52.2205C1163.56 52.2205 1164.22 52.6017 1164.58 53.2205L1175.92 72.8711Z" fill="#E44A9E"/>
<path d="M1116.28 122.104C1116.64 122.723 1116.64 123.486 1116.28 124.104L1104.93 143.755C1104.58 144.374 1103.92 144.755 1103.2 144.755H1080.51C1079.8 144.755 1079.14 144.374 1078.78 143.755L1067.43 124.104C1067.08 123.486 1067.08 122.723 1067.43 122.104L1078.78 102.454C1079.14 101.835 1079.8 101.454 1080.51 101.454L1103.2 101.454C1103.92 101.454 1104.58 101.835 1104.93 102.454L1116.28 122.104Z" fill="#C0015D"/>
<path d="M1262.91 73.9961C1263.27 74.6149 1263.27 75.3773 1262.91 75.9961L1251.57 95.6467C1251.21 96.2655 1250.55 96.6467 1249.84 96.6467L1227.14 96.6467C1226.43 96.6467 1225.77 96.2655 1225.41 95.6467L1214.07 75.9961C1213.71 75.3773 1213.71 74.6149 1214.07 73.9961L1225.41 54.3455C1225.77 53.7267 1226.43 53.3455 1227.14 53.3455L1249.84 53.3455C1250.55 53.3455 1251.21 53.7267 1251.57 54.3455L1262.91 73.9961Z" fill="#5E2B9E"/>
<path d="M1220.24 48.4424C1220.6 49.0612 1220.6 49.8236 1220.24 50.4424L1208.89 70.093C1208.54 70.7118 1207.88 71.093 1207.16 71.093L1184.47 71.093C1183.76 71.093 1183.1 70.7118 1182.74 70.093L1171.39 50.4424C1171.04 49.8236 1171.04 49.0612 1171.39 48.4424L1182.74 28.7917C1183.1 28.1729 1183.76 27.7917 1184.47 27.7917L1207.16 27.7917C1207.88 27.7917 1208.54 28.1729 1208.89 28.7917L1220.24 48.4424Z" fill="#C0015D"/>
<path d="M1305.15 149.699C1305.5 150.318 1305.5 151.08 1305.15 151.699L1293.8 171.35C1293.44 171.969 1292.78 172.35 1292.07 172.35H1269.38C1268.66 172.35 1268 171.969 1267.65 171.35L1256.3 151.699C1255.94 151.08 1255.94 150.318 1256.3 149.699L1267.65 130.049C1268 129.43 1268.66 129.049 1269.38 129.049H1292.07C1292.78 129.049 1293.44 129.43 1293.8 130.049L1305.15 149.699Z" fill="#D80034"/>
<path d="M1349.26 125.116C1349.62 125.735 1349.62 126.497 1349.26 127.116L1337.91 146.767C1337.56 147.386 1336.9 147.767 1336.18 147.767H1313.49C1312.78 147.767 1312.12 147.386 1311.76 146.767L1300.41 127.116C1300.06 126.497 1300.06 125.735 1300.41 125.116L1311.76 105.466C1312.12 104.847 1312.78 104.466 1313.49 104.466L1336.18 104.466C1336.9 104.466 1337.56 104.847 1337.91 105.466L1349.26 125.116Z" fill="#C0015D"/>
<path d="M1306.59 99.5625C1306.94 100.181 1306.94 100.944 1306.59 101.562L1295.24 121.213C1294.88 121.832 1294.22 122.213 1293.51 122.213L1270.82 122.213C1270.1 122.213 1269.44 121.832 1269.09 121.213L1257.74 101.563C1257.38 100.944 1257.38 100.181 1257.74 99.5625L1269.09 79.9119C1269.44 79.2931 1270.1 78.9119 1270.82 78.9119L1293.51 78.9119C1294.22 78.9119 1294.88 79.2931 1295.24 79.9119L1306.59 99.5625Z" fill="#D80034"/>
<path d="M1392.58 100.675C1392.94 101.294 1392.94 102.056 1392.58 102.675L1381.23 122.325C1380.88 122.944 1380.22 123.325 1379.5 123.325L1356.81 123.325C1356.1 123.325 1355.44 122.944 1355.08 122.325L1343.73 102.675C1343.38 102.056 1343.38 101.294 1343.73 100.675L1355.08 81.0242C1355.44 80.4054 1356.1 80.0242 1356.81 80.0242L1379.5 80.0242C1380.22 80.0242 1380.88 80.4054 1381.23 81.0242L1392.58 100.675Z" fill="#D80034"/>
<path d="M1304.29 199.542C1304.65 200.161 1304.65 200.923 1304.29 201.542L1292.95 221.193C1292.59 221.811 1291.93 222.193 1291.22 222.193H1268.53C1267.81 222.193 1267.15 221.811 1266.79 221.193L1255.45 201.542C1255.09 200.923 1255.09 200.161 1255.45 199.542L1266.79 179.891C1267.15 179.273 1267.81 178.891 1268.53 178.891H1291.22C1291.93 178.891 1292.59 179.273 1292.95 179.891L1304.29 199.542Z" fill="#C0015D"/>
<path d="M1391.29 200.666C1391.64 201.285 1391.64 202.047 1391.29 202.666L1379.94 222.317C1379.58 222.935 1378.92 223.317 1378.21 223.317H1355.52C1354.8 223.317 1354.14 222.935 1353.79 222.317L1342.44 202.666C1342.08 202.047 1342.08 201.285 1342.44 200.666L1353.79 181.015C1354.14 180.397 1354.8 180.015 1355.52 180.015H1378.21C1378.92 180.015 1379.58 180.397 1379.94 181.015L1391.29 200.666Z" fill="#C0015D"/>
<path d="M1261.62 173.988C1261.98 174.607 1261.98 175.369 1261.62 175.988L1250.27 195.639C1249.92 196.258 1249.26 196.639 1248.54 196.639H1225.85C1225.14 196.639 1224.48 196.258 1224.12 195.639L1212.77 175.988C1212.42 175.369 1212.42 174.607 1212.77 173.988L1224.12 154.338C1224.48 153.719 1225.14 153.338 1225.85 153.338H1248.54C1249.26 153.338 1249.92 153.719 1250.27 154.338L1261.62 173.988Z" fill="#D80034"/>
<path d="M1348.61 175.112C1348.97 175.731 1348.97 176.494 1348.61 177.112L1337.27 196.763C1336.91 197.382 1336.25 197.763 1335.53 197.763H1312.84C1312.13 197.763 1311.47 197.382 1311.11 196.763L1299.77 177.112C1299.41 176.494 1299.41 175.731 1299.77 175.112L1311.11 155.462C1311.47 154.843 1312.13 154.462 1312.84 154.462H1335.53C1336.25 154.462 1336.91 154.843 1337.27 155.462L1348.61 175.112Z" fill="#D80034"/>
<path d="M1035.42 33.0518C1035.78 33.6706 1035.78 34.433 1035.42 35.0518L1024.08 54.7024C1023.72 55.3212 1023.06 55.7024 1022.35 55.7024L999.655 55.7024C998.94 55.7024 998.28 55.3212 997.923 54.7024L986.577 35.0518C986.22 34.433 986.22 33.6706 986.577 33.0518L997.923 13.4011C998.28 12.7823 998.94 12.4011 999.655 12.4011L1022.35 12.4011C1023.06 12.4011 1023.72 12.7823 1024.08 13.4011L1035.42 33.0518Z" fill="#D80034"/>
<path d="M1218.3 198.43C1218.66 199.048 1218.66 199.811 1218.3 200.43L1206.95 220.08C1206.6 220.699 1205.94 221.08 1205.22 221.08H1182.53C1181.82 221.08 1181.16 220.699 1180.8 220.08L1169.45 200.43C1169.1 199.811 1169.1 199.048 1169.45 198.43L1180.8 178.779C1181.16 178.16 1181.82 177.779 1182.53 177.779H1205.22C1205.94 177.779 1206.6 178.16 1206.95 178.779L1218.3 198.43Z" fill="#C0015D"/>
<path d="M1479.57 101.799C1479.93 102.418 1479.93 103.18 1479.57 103.799L1468.23 123.449C1467.87 124.068 1467.21 124.449 1466.49 124.449L1443.8 124.449C1443.09 124.449 1442.43 124.068 1442.07 123.449L1430.73 103.799C1430.37 103.18 1430.37 102.418 1430.73 101.799L1442.07 82.1482C1442.43 81.5294 1443.09 81.1482 1443.8 81.1482L1466.49 81.1482C1467.21 81.1482 1467.87 81.5294 1468.23 82.1482L1479.57 101.799Z" fill="#D80034"/>
<path d="M1434.81 176.378C1435.17 176.997 1435.17 177.759 1434.81 178.378L1423.47 198.029C1423.11 198.647 1422.45 199.029 1421.74 199.029H1399.05C1398.33 199.029 1397.67 198.647 1397.31 198.029L1385.97 178.378C1385.61 177.759 1385.61 176.997 1385.97 176.378L1397.31 156.727C1397.67 156.108 1398.33 155.727 1399.05 155.727H1421.74C1422.45 155.727 1423.11 156.108 1423.47 156.727L1434.81 176.378Z" fill="#D80034"/>
<path d="M1391.93 150.671C1392.29 151.29 1392.29 152.052 1391.93 152.671L1380.59 172.322C1380.23 172.94 1379.57 173.322 1378.86 173.322H1356.16C1355.45 173.322 1354.79 172.94 1354.43 172.322L1343.09 152.671C1342.73 152.052 1342.73 151.29 1343.09 150.671L1354.43 131.02C1354.79 130.401 1355.45 130.02 1356.16 130.02H1378.86C1379.57 130.02 1380.23 130.401 1380.59 131.02L1391.93 150.671Z" fill="#C0015D"/>
<path d="M1478.92 151.795C1479.28 152.414 1479.28 153.176 1478.92 153.795L1467.58 173.446C1467.22 174.064 1466.56 174.446 1465.85 174.446H1443.16C1442.44 174.446 1441.78 174.064 1441.42 173.446L1430.08 153.795C1429.72 153.176 1429.72 152.414 1430.08 151.795L1441.42 132.144C1441.78 131.525 1442.44 131.144 1443.16 131.144H1465.85C1466.56 131.144 1467.22 131.525 1467.58 132.144L1478.92 151.795Z" fill="#5E2B9E"/>
<path d="M1436.25 126.241C1436.61 126.86 1436.61 127.622 1436.25 128.241L1424.91 147.892C1424.55 148.511 1423.89 148.892 1423.18 148.892H1400.48C1399.77 148.892 1399.11 148.511 1398.75 147.892L1387.41 128.241C1387.05 127.622 1387.05 126.86 1387.41 126.241L1398.75 106.591C1399.11 105.972 1399.77 105.591 1400.48 105.591L1423.18 105.591C1423.89 105.591 1424.55 105.972 1424.91 106.591L1436.25 126.241Z" fill="#C0015D"/>
<path d="M1322.34 333.029C1322.69 333.648 1322.69 334.41 1322.34 335.029L1310.99 354.679C1310.63 355.298 1309.97 355.679 1309.26 355.679L1286.57 355.678C1285.85 355.678 1285.19 355.297 1284.84 354.678L1273.49 335.027C1273.13 334.408 1273.13 333.646 1273.49 333.027L1284.84 313.377C1285.2 312.758 1285.86 312.377 1286.57 312.377L1309.26 312.378C1309.98 312.378 1310.64 312.759 1310.99 313.378L1322.34 333.029Z" fill="#5E2B9E"/>
<path d="M1280.65 305.436C1281.01 306.054 1281.01 306.817 1280.65 307.436L1269.3 327.086C1268.94 327.704 1268.28 328.086 1267.57 328.085L1244.88 328.084C1244.16 328.084 1243.5 327.703 1243.15 327.084L1231.8 307.433C1231.45 306.814 1231.45 306.052 1231.8 305.433L1243.15 285.783C1243.51 285.164 1244.17 284.783 1244.88 284.783L1267.57 284.784C1268.29 284.784 1268.95 285.165 1269.3 285.784L1280.65 305.436Z" fill="#C0015D"/>
<path d="M1367.5 310.438C1367.86 311.057 1367.86 311.82 1367.5 312.438L1356.16 332.089C1355.8 332.707 1355.14 333.088 1354.42 333.088L1331.73 333.087C1331.02 333.087 1330.36 332.706 1330 332.087L1318.66 312.436C1318.3 311.817 1318.3 311.055 1318.66 310.436L1330 290.786C1330.36 290.167 1331.02 289.786 1331.74 289.786L1354.43 289.787C1355.14 289.787 1355.8 290.168 1356.16 290.787L1367.5 310.438Z" fill="#C0015D"/>
<path d="M1239.16 278.003C1239.51 278.622 1239.51 279.384 1239.16 280.003L1227.81 299.653C1227.45 300.272 1226.79 300.653 1226.08 300.653L1203.39 300.652C1202.67 300.652 1202.01 300.27 1201.65 299.652L1190.31 280C1189.95 279.382 1189.95 278.619 1190.31 278L1201.66 258.35C1202.01 257.732 1202.67 257.35 1203.39 257.35L1226.08 257.352C1226.79 257.352 1227.45 257.733 1227.81 258.352L1239.16 278.003Z" fill="#D80034"/>
<path d="M1326.01 283.007C1326.37 283.626 1326.37 284.388 1326.01 285.007L1314.66 304.657C1314.31 305.276 1313.65 305.657 1312.93 305.657L1290.24 305.656C1289.53 305.656 1288.87 305.274 1288.51 304.656L1277.17 285.004C1276.81 284.385 1276.81 283.623 1277.17 283.004L1288.51 263.354C1288.87 262.735 1289.53 262.354 1290.24 262.354L1312.93 262.356C1313.65 262.356 1314.31 262.737 1314.67 263.356L1326.01 283.007Z" fill="#D80034"/>
<path d="M1191.11 350.511C1191.47 351.13 1191.47 351.892 1191.11 352.511L1179.77 372.161C1179.41 372.78 1178.75 373.161 1178.04 373.161L1155.35 373.16C1154.63 373.159 1153.97 372.778 1153.61 372.159L1142.27 352.508C1141.91 351.889 1141.91 351.127 1142.27 350.508L1153.62 330.858C1153.97 330.239 1154.63 329.858 1155.35 329.858L1178.04 329.859C1178.75 329.859 1179.41 330.241 1179.77 330.859L1191.11 350.511Z" fill="#D80034"/>
<path d="M1192.5 455.428C1192.85 456.047 1192.85 456.809 1192.5 457.428L1181.15 477.078C1180.79 477.697 1180.13 478.078 1179.42 478.078L1156.73 478.077C1156.01 478.076 1155.35 477.695 1154.99 477.076L1143.65 457.425C1143.29 456.806 1143.29 456.044 1143.65 455.425L1155 435.775C1155.35 435.156 1156.01 434.775 1156.73 434.775L1179.42 434.776C1180.13 434.776 1180.79 435.158 1181.15 435.776L1192.5 455.428Z" fill="#D80034"/>
<path d="M1149.43 322.916C1149.78 323.535 1149.78 324.297 1149.43 324.916L1138.08 344.566C1137.72 345.185 1137.06 345.566 1136.35 345.566L1113.66 345.565C1112.94 345.565 1112.28 345.184 1111.92 344.565L1100.58 324.913C1100.22 324.295 1100.22 323.532 1100.58 322.913L1111.93 303.263C1112.28 302.645 1112.94 302.263 1113.66 302.264L1136.35 302.265C1137.06 302.265 1137.72 302.646 1138.08 303.265L1149.43 322.916Z" fill="#C0015D"/>
<path d="M1236.28 327.921C1236.64 328.54 1236.64 329.302 1236.28 329.921L1224.93 349.571C1224.58 350.19 1223.92 350.571 1223.2 350.571L1200.51 350.57C1199.8 350.57 1199.14 350.188 1198.78 349.57L1187.44 329.918C1187.08 329.3 1187.08 328.537 1187.44 327.918L1198.78 308.268C1199.14 307.65 1199.8 307.268 1200.51 307.268L1223.2 307.27C1223.92 307.27 1224.58 307.651 1224.94 308.27L1236.28 327.921Z" fill="#5E2B9E"/>
<path d="M1194.79 300.488C1195.15 301.107 1195.15 301.869 1194.79 302.488L1183.44 322.138C1183.09 322.757 1182.43 323.138 1181.71 323.138L1159.02 323.137C1158.31 323.137 1157.65 322.756 1157.29 322.137L1145.95 302.486C1145.59 301.867 1145.59 301.105 1145.95 300.486L1157.29 280.836C1157.65 280.217 1158.31 279.836 1159.02 279.836L1181.71 279.837C1182.43 279.837 1183.09 280.218 1183.45 280.837L1194.79 300.488Z" fill="#C0015D"/>
<path d="M1275.1 405.432C1275.45 406.05 1275.45 406.813 1275.1 407.432L1263.75 427.082C1263.39 427.7 1262.73 428.082 1262.02 428.082L1239.33 428.08C1238.61 428.08 1237.95 427.699 1237.59 427.08L1226.25 407.429C1225.89 406.81 1225.89 406.048 1226.25 405.429L1237.6 385.779C1237.95 385.16 1238.61 384.779 1239.33 384.779L1262.02 384.78C1262.73 384.78 1263.39 385.162 1263.75 385.78L1275.1 405.432Z" fill="#D80034"/>
<path d="M1320.26 382.842C1320.62 383.461 1320.62 384.223 1320.26 384.842L1308.91 404.492C1308.56 405.111 1307.9 405.492 1307.18 405.492L1284.49 405.491C1283.78 405.491 1283.12 405.109 1282.76 404.49L1271.42 384.839C1271.06 384.22 1271.06 383.458 1271.42 382.839L1282.76 363.189C1283.12 362.57 1283.78 362.189 1284.49 362.189L1307.18 362.19C1307.9 362.191 1308.56 362.572 1308.92 363.191L1320.26 382.842Z" fill="#C0015D"/>
<path d="M1278.77 355.409C1279.13 356.028 1279.13 356.79 1278.77 357.409L1267.42 377.059C1267.07 377.678 1266.41 378.059 1265.69 378.059L1243 378.058C1242.29 378.058 1241.63 377.677 1241.27 377.058L1229.92 357.407C1229.57 356.788 1229.57 356.025 1229.92 355.407L1241.27 335.757C1241.63 335.138 1242.29 334.757 1243 334.757L1265.69 334.758C1266.41 334.758 1267.07 335.139 1267.42 335.758L1278.77 355.409Z" fill="#D80034"/>
<path d="M1522.44 227.016C1522.8 227.635 1522.8 228.397 1522.44 229.016L1511.1 248.671C1510.75 249.29 1510.09 249.671 1509.37 249.671L1486.68 249.68C1485.97 249.68 1485.31 249.299 1484.95 248.681L1473.6 229.034C1473.24 228.416 1473.24 227.653 1473.6 227.034L1484.93 207.379C1485.29 206.76 1485.95 206.379 1486.67 206.379L1509.36 206.37C1510.07 206.37 1510.73 206.751 1511.09 207.369L1522.44 227.016Z" fill="#C0015D"/>
<path d="M1479.43 202.032C1479.79 202.651 1479.79 203.414 1479.43 204.032L1468.09 223.687C1467.74 224.306 1467.08 224.688 1466.36 224.688L1443.67 224.697C1442.96 224.697 1442.3 224.316 1441.94 223.697L1430.59 204.051C1430.23 203.432 1430.23 202.67 1430.59 202.051L1441.92 182.396C1442.28 181.777 1442.94 181.396 1443.66 181.395L1466.35 181.387C1467.06 181.386 1467.72 181.767 1468.08 182.386L1479.43 202.032Z" fill="#D80034"/>
<path d="M1435.67 277.2C1436.03 277.819 1436.03 278.581 1435.67 279.2L1424.33 298.855C1423.98 299.474 1423.32 299.856 1422.6 299.856L1399.91 299.865C1399.2 299.865 1398.54 299.484 1398.18 298.865L1386.83 279.219C1386.47 278.6 1386.47 277.838 1386.82 277.219L1398.16 257.564C1398.52 256.945 1399.18 256.564 1399.89 256.563L1422.58 256.555C1423.3 256.554 1423.96 256.935 1424.32 257.554L1435.67 277.2Z" fill="#D80034"/>
<path d="M1392.45 252.066C1392.81 252.684 1392.81 253.447 1392.45 254.066L1381.11 273.721C1380.76 274.34 1380.1 274.721 1379.38 274.721L1356.69 274.73C1355.98 274.73 1355.32 274.349 1354.96 273.73L1343.61 254.084C1343.25 253.465 1343.25 252.703 1343.61 252.084L1354.94 232.429C1355.3 231.81 1355.96 231.429 1356.68 231.429L1379.37 231.42C1380.08 231.42 1380.74 231.801 1381.1 232.419L1392.45 252.066Z" fill="#E44A9E"/>
<path d="M1479.45 252.032C1479.81 252.651 1479.81 253.414 1479.45 254.032L1468.11 273.687C1467.76 274.306 1467.1 274.688 1466.38 274.688L1443.69 274.697C1442.98 274.697 1442.32 274.316 1441.96 273.697L1430.61 254.051C1430.25 253.432 1430.25 252.67 1430.61 252.051L1441.94 232.396C1442.3 231.777 1442.96 231.396 1443.68 231.395L1466.37 231.387C1467.08 231.386 1467.74 231.767 1468.1 232.386L1479.45 252.032Z" fill="#5E2B9E"/>
<path d="M1436.44 227.049C1436.8 227.668 1436.8 228.43 1436.44 229.049L1425.1 248.704C1424.75 249.323 1424.09 249.704 1423.37 249.705L1400.68 249.713C1399.97 249.713 1399.31 249.333 1398.95 248.714L1387.6 229.068C1387.24 228.449 1387.24 227.686 1387.6 227.068L1398.93 207.413C1399.29 206.794 1399.95 206.412 1400.67 206.412L1423.36 206.403C1424.07 206.403 1424.73 206.784 1425.09 207.403L1436.44 227.049Z" fill="#C0015D"/>
<path d="M1522.69 327.167C1523.05 327.786 1523.05 328.548 1522.69 329.167L1511.35 348.822C1510.99 349.441 1510.33 349.823 1509.62 349.823L1486.93 349.831C1486.21 349.832 1485.55 349.451 1485.2 348.832L1473.84 329.186C1473.49 328.567 1473.49 327.805 1473.84 327.186L1485.18 307.531C1485.54 306.912 1486.2 306.53 1486.91 306.53L1509.6 306.522C1510.32 306.521 1510.98 306.902 1511.33 307.521L1522.69 327.167Z" fill="#D80034"/>
<path d="M1523.46 277.016C1523.82 277.635 1523.82 278.397 1523.46 279.016L1512.12 298.671C1511.77 299.29 1511.11 299.671 1510.39 299.671L1487.7 299.68C1486.99 299.68 1486.33 299.299 1485.97 298.681L1474.62 279.034C1474.26 278.416 1474.26 277.653 1474.62 277.034L1485.95 257.379C1486.31 256.76 1486.97 256.379 1487.69 256.379L1510.38 256.37C1511.09 256.37 1511.75 256.751 1512.11 257.369L1523.46 277.016Z" fill="#D80034"/>
<path d="M1112.74 840.404C1112.38 839.785 1112.38 839.023 1112.74 838.404L1124.09 818.754C1124.44 818.135 1125.1 817.754 1125.82 817.754H1148.51C1149.22 817.754 1149.88 818.135 1150.24 818.754L1161.59 838.404C1161.94 839.023 1161.94 839.785 1161.59 840.404L1150.24 860.055C1149.88 860.674 1149.22 861.055 1148.51 861.055H1125.82C1125.1 861.055 1124.44 860.674 1124.09 860.055L1112.74 840.404Z" fill="#5E2B9E"/>
<path d="M1154.43 867.997C1154.08 867.378 1154.08 866.616 1154.43 865.997L1165.78 846.346C1166.14 845.728 1166.8 845.346 1167.51 845.346H1190.2C1190.92 845.346 1191.58 845.728 1191.93 846.346L1203.28 865.997C1203.64 866.616 1203.64 867.378 1203.28 867.997L1191.93 887.648C1191.58 888.267 1190.92 888.648 1190.2 888.648H1167.51C1166.8 888.648 1166.14 888.267 1165.78 887.648L1154.43 867.997Z" fill="#C0015D"/>
<path d="M1067.58 862.998C1067.22 862.379 1067.22 861.617 1067.58 860.998L1078.92 841.347C1079.28 840.729 1079.94 840.347 1080.65 840.347H1103.35C1104.06 840.347 1104.72 840.729 1105.08 841.347L1116.42 860.998C1116.78 861.617 1116.78 862.379 1116.42 862.998L1105.08 882.649C1104.72 883.267 1104.06 883.649 1103.35 883.649H1080.65C1079.94 883.649 1079.28 883.267 1078.92 882.649L1067.58 862.998Z" fill="#C0015D"/>
<path d="M1195.93 895.427C1195.57 894.808 1195.57 894.046 1195.93 893.427L1207.27 873.776C1207.63 873.157 1208.29 872.776 1209 872.776H1231.69C1232.41 872.776 1233.07 873.157 1233.43 873.776L1244.77 893.427C1245.13 894.046 1245.13 894.808 1244.77 895.427L1233.43 915.077C1233.07 915.696 1232.41 916.077 1231.69 916.077H1209C1208.29 916.077 1207.63 915.696 1207.27 915.077L1195.93 895.427Z" fill="#D80034"/>
<path d="M1109.07 890.428C1108.71 889.809 1108.71 889.047 1109.07 888.428L1120.41 868.777C1120.77 868.158 1121.43 867.777 1122.15 867.777H1144.84C1145.55 867.777 1146.21 868.158 1146.57 868.777L1157.91 888.428C1158.27 889.047 1158.27 889.809 1157.91 890.428L1146.57 910.078C1146.21 910.697 1145.55 911.078 1144.84 911.078H1122.15C1121.43 911.078 1120.77 910.697 1120.41 910.078L1109.07 890.428Z" fill="#D80034"/>
<path d="M1243.96 822.917C1243.61 822.298 1243.61 821.536 1243.96 820.917L1255.31 801.266C1255.67 800.648 1256.33 800.266 1257.04 800.266H1279.73C1280.45 800.266 1281.11 800.648 1281.46 801.266L1292.81 820.917C1293.17 821.536 1293.17 822.298 1292.81 822.917L1281.46 842.568C1281.11 843.186 1280.45 843.568 1279.73 843.568H1257.04C1256.33 843.568 1255.67 843.186 1255.31 842.568L1243.96 822.917Z" fill="#D80034"/>
<path d="M1242.58 718C1242.22 717.381 1242.22 716.619 1242.58 716L1253.92 696.349C1254.28 695.731 1254.94 695.349 1255.65 695.349H1278.35C1279.06 695.349 1279.72 695.731 1280.08 696.349L1291.42 716C1291.78 716.619 1291.78 717.381 1291.42 718L1280.08 737.651C1279.72 738.269 1279.06 738.651 1278.35 738.651H1255.65C1254.94 738.651 1254.28 738.269 1253.92 737.651L1242.58 718Z" fill="#D80034"/>
<path d="M1285.66 850.51C1285.3 849.891 1285.3 849.129 1285.66 848.51L1297 828.859C1297.36 828.24 1298.02 827.859 1298.73 827.859H1321.42C1322.14 827.859 1322.8 828.24 1323.16 828.859L1334.5 848.51C1334.86 849.129 1334.86 849.891 1334.5 850.51L1323.16 870.16C1322.8 870.779 1322.14 871.16 1321.42 871.16H1298.73C1298.02 871.16 1297.36 870.779 1297 870.16L1285.66 850.51Z" fill="#E44A9E"/>
<path d="M1198.8 845.51C1198.44 844.891 1198.44 844.129 1198.8 843.51L1210.15 823.859C1210.5 823.24 1211.16 822.859 1211.88 822.859H1234.57C1235.28 822.859 1235.94 823.24 1236.3 823.859L1247.65 843.51C1248 844.129 1248 844.891 1247.65 845.51L1236.3 865.16C1235.94 865.779 1235.28 866.16 1234.57 866.16H1211.88C1211.16 866.16 1210.5 865.779 1210.15 865.16L1198.8 845.51Z" fill="#5E2B9E"/>
<path d="M1240.29 872.939C1239.93 872.321 1239.93 871.558 1240.29 870.939L1251.64 851.289C1251.99 850.67 1252.66 850.289 1253.37 850.289H1276.06C1276.77 850.289 1277.43 850.67 1277.79 851.289L1289.14 870.939C1289.49 871.558 1289.49 872.321 1289.14 872.939L1277.79 892.59C1277.43 893.209 1276.77 893.59 1276.06 893.59H1253.37C1252.66 893.59 1251.99 893.209 1251.64 892.59L1240.29 872.939Z" fill="#C0015D"/>
<path d="M1159.98 768C1159.62 767.381 1159.62 766.619 1159.98 766L1171.32 746.349C1171.68 745.731 1172.34 745.349 1173.06 745.349H1195.75C1196.46 745.349 1197.12 745.731 1197.48 746.349L1208.82 766C1209.18 766.619 1209.18 767.381 1208.82 768L1197.48 787.651C1197.12 788.269 1196.46 788.651 1195.75 788.651H1173.06C1172.34 788.651 1171.68 788.269 1171.32 787.651L1159.98 768Z" fill="#D80034"/>
<path d="M1114.82 790.593C1114.46 789.974 1114.46 789.212 1114.82 788.593L1126.16 768.942C1126.52 768.323 1127.18 767.942 1127.89 767.942H1150.59C1151.3 767.942 1151.96 768.323 1152.32 768.942L1163.66 788.593C1164.02 789.212 1164.02 789.974 1163.66 790.593L1152.32 810.243C1151.96 810.862 1151.3 811.243 1150.59 811.243H1127.89C1127.18 811.243 1126.52 810.862 1126.16 810.243L1114.82 790.593Z" fill="#C0015D"/>
<path d="M1156.31 818.022C1155.95 817.404 1155.95 816.641 1156.31 816.022L1167.66 796.372C1168.01 795.753 1168.67 795.372 1169.39 795.372H1192.08C1192.79 795.372 1193.45 795.753 1193.81 796.372L1205.16 816.022C1205.51 816.641 1205.51 817.404 1205.16 818.022L1193.81 837.673C1193.45 838.292 1192.79 838.673 1192.08 838.673H1169.39C1168.67 838.673 1168.01 838.292 1167.66 837.673L1156.31 818.022Z" fill="#D80034"/>
<path d="M110.805 935.801C110.09 935.801 109.43 935.42 109.073 934.801L97.7275 915.15C97.3702 914.531 97.3702 913.769 97.7275 913.15L109.073 893.5C109.43 892.881 110.09 892.5 110.805 892.5L133.495 892.5C134.21 892.5 134.87 892.881 135.227 893.5L146.573 913.15C146.93 913.769 146.93 914.531 146.573 915.15L135.227 934.801C134.87 935.42 134.21 935.801 133.495 935.801L110.805 935.801Z" fill="#4E75FF"/>
<path d="M240.805 760.801C240.09 760.801 239.43 760.42 239.073 759.801L227.727 740.15C227.37 739.531 227.37 738.769 227.727 738.15L239.073 718.5C239.43 717.881 240.09 717.5 240.805 717.5L263.495 717.5C264.21 717.5 264.87 717.881 265.227 718.5L276.573 738.15C276.93 738.769 276.93 739.531 276.573 740.15L265.227 759.801C264.87 760.42 264.21 760.801 263.495 760.801L240.805 760.801Z" fill="#4E75FF"/>
<path d="M22.8048 535.801C22.0903 535.801 21.4301 535.42 21.0728 534.801L9.7275 515.15C9.37023 514.531 9.37023 513.769 9.7275 513.15L21.0728 493.5C21.4301 492.881 22.0903 492.5 22.8048 492.5L45.4954 492.5C46.21 492.5 46.8702 492.881 47.2275 493.5L58.5728 513.15C58.9301 513.769 58.9301 514.531 58.5728 515.15L47.2275 534.801C46.8702 535.42 46.21 535.801 45.4954 535.801L22.8048 535.801Z" fill="#4E75FF"/>
<path d="M1096.8 70.8008C1096.09 70.8008 1095.43 70.4196 1095.07 69.8008L1083.73 50.1501C1083.37 49.5313 1083.37 48.7689 1083.73 48.1501L1095.07 28.4995C1095.43 27.8807 1096.09 27.4995 1096.8 27.4995L1119.5 27.4995C1120.21 27.4995 1120.87 27.8807 1121.23 28.4995L1132.57 48.1501C1132.93 48.7689 1132.93 49.5313 1132.57 50.1501L1121.23 69.8008C1120.87 70.4196 1120.21 70.8008 1119.5 70.8008L1096.8 70.8008Z" fill="#4E75FF"/>
<path d="M1282.8 455.801C1282.09 455.801 1281.43 455.42 1281.07 454.801L1269.73 435.15C1269.37 434.531 1269.37 433.769 1269.73 433.15L1281.07 413.5C1281.43 412.881 1282.09 412.5 1282.8 412.5L1305.5 412.5C1306.21 412.5 1306.87 412.881 1307.23 413.5L1318.57 433.15C1318.93 433.769 1318.93 434.531 1318.57 435.15L1307.23 454.801C1306.87 455.42 1306.21 455.801 1305.5 455.801L1282.8 455.801Z" fill="#4E75FF"/>
<path d="M1399.8 348.801C1399.09 348.801 1398.43 348.42 1398.07 347.801L1386.73 328.15C1386.37 327.531 1386.37 326.769 1386.73 326.15L1398.07 306.5C1398.43 305.881 1399.09 305.5 1399.8 305.5L1422.5 305.5C1423.21 305.5 1423.87 305.881 1424.23 306.5L1435.57 326.15C1435.93 326.769 1435.93 327.531 1435.57 328.15L1424.23 347.801C1423.87 348.42 1423.21 348.801 1422.5 348.801L1399.8 348.801Z" fill="#4E75FF"/>
</svg>
