<svg width="1032" height="1047" viewBox="0 0 1032 1047" fill="none" xmlns="http://www.w3.org/2000/svg">
<path d="M212.256 1005.29C211.542 1005.29 210.881 1004.91 210.524 1004.29L198.241 983.02C197.884 982.402 197.884 981.639 198.241 981.02L210.524 959.746C210.881 959.127 211.542 958.746 212.256 958.746L236.822 958.746C237.536 958.746 238.197 959.127 238.554 959.746L250.837 981.02C251.194 981.639 251.194 982.402 250.837 983.02L238.554 1004.29C238.197 1004.91 237.536 1005.29 236.822 1005.29L212.256 1005.29Z" fill="#5E2B9E"/>
<path d="M258.832 978.472C258.118 978.472 257.458 978.09 257.1 977.472L244.818 956.197C244.46 955.578 244.46 954.816 244.818 954.197L257.1 932.923C257.458 932.304 258.118 931.923 258.832 931.923L283.398 931.923C284.113 931.923 284.773 932.304 285.13 932.923L297.413 954.197C297.77 954.816 297.77 955.578 297.413 956.197L285.13 977.472C284.773 978.09 284.113 978.472 283.398 978.472L258.832 978.472Z" fill="#C0015D"/>
<path d="M305.152 951.764C304.437 951.764 303.777 951.382 303.42 950.764L291.137 929.489C290.78 928.87 290.78 928.108 291.137 927.489L303.42 906.215C303.777 905.596 304.437 905.215 305.152 905.215L329.717 905.215C330.432 905.215 331.092 905.596 331.449 906.215L343.732 927.489C344.089 928.108 344.089 928.87 343.732 929.489L331.449 950.764C331.092 951.382 330.432 951.764 329.717 951.764L305.152 951.764Z" fill="#D80034"/>
<path d="M258.588 1032.87C257.874 1032.87 257.213 1032.49 256.856 1031.87L244.573 1010.6C244.216 1009.98 244.216 1009.22 244.573 1008.6L256.856 987.324C257.213 986.705 257.874 986.324 258.588 986.324L283.154 986.324C283.868 986.324 284.529 986.705 284.886 987.324L297.169 1008.6C297.526 1009.22 297.526 1009.98 297.169 1010.6L284.886 1031.87C284.529 1032.49 283.868 1032.87 283.154 1032.87L258.588 1032.87Z" fill="#D80034"/>
<path d="M258.528 870.716C257.813 870.716 257.153 870.335 256.796 869.716L244.513 848.441C244.156 847.823 244.156 847.06 244.513 846.441L256.796 825.167C257.153 824.548 257.813 824.167 258.528 824.167L283.093 824.167C283.808 824.167 284.468 824.548 284.825 825.167L297.108 846.441C297.465 847.06 297.465 847.823 297.108 848.441L284.825 869.716C284.468 870.335 283.808 870.716 283.093 870.716L258.528 870.716Z" fill="#D80034"/>
<path d="M211.482 737.237C210.767 737.237 210.107 736.856 209.75 736.237L197.467 714.963C197.11 714.344 197.11 713.582 197.467 712.963L209.75 691.688C210.107 691.07 210.767 690.688 211.482 690.688L236.047 690.688C236.762 690.688 237.422 691.07 237.779 691.688L250.062 712.963C250.42 713.582 250.42 714.344 250.062 714.963L237.779 736.237C237.422 736.856 236.762 737.237 236.047 737.237L211.482 737.237Z" fill="#D80034"/>
<path d="M305.101 843.894C304.386 843.894 303.726 843.512 303.369 842.894L291.086 821.619C290.729 821 290.729 820.238 291.086 819.619L303.369 798.345C303.726 797.726 304.386 797.345 305.101 797.345L329.667 797.345C330.381 797.345 331.041 797.726 331.399 798.345L343.681 819.619C344.039 820.238 344.039 821 343.681 821.619L331.399 842.894C331.041 843.512 330.381 843.894 329.667 843.894L305.101 843.894Z" fill="#C0015D"/>
<path d="M258.538 925.003C257.824 925.003 257.164 924.622 256.806 924.003L244.524 902.728C244.166 902.11 244.166 901.347 244.524 900.728L256.806 879.454C257.164 878.835 257.824 878.454 258.538 878.454L283.104 878.454C283.819 878.454 284.479 878.835 284.836 879.454L297.119 900.728C297.476 901.347 297.476 902.11 297.119 902.728L284.836 924.003C284.479 924.622 283.819 925.003 283.104 925.003L258.538 925.003Z" fill="#5E2B9E"/>
<path d="M71.7318 817.862C71.0173 817.862 70.357 817.481 69.9997 816.862L57.7169 795.588C57.3597 794.969 57.3597 794.207 57.7169 793.588L69.9997 772.313C70.357 771.695 71.0173 771.313 71.7318 771.313L96.2974 771.313C97.012 771.313 97.6722 771.695 98.0295 772.313L110.312 793.588C110.67 794.207 110.67 794.969 110.312 795.588L98.0295 816.862C97.6722 817.481 97.012 817.862 96.2974 817.862L71.7318 817.862Z" fill="#5E2B9E"/>
<path d="M304.86 898.295C304.145 898.295 303.485 897.914 303.128 897.295L290.845 876.02C290.488 875.402 290.488 874.639 290.845 874.02L303.128 852.746C303.485 852.127 304.145 851.746 304.86 851.746L329.425 851.746C330.14 851.746 330.8 852.127 331.157 852.746L343.44 874.02C343.798 874.639 343.798 875.402 343.44 876.02L331.157 897.295C330.8 897.914 330.14 898.295 329.425 898.295L304.86 898.295Z" fill="#C0015D"/>
<path d="M165.349 925.065C164.634 925.065 163.974 924.684 163.617 924.065L151.334 902.791C150.977 902.172 150.977 901.41 151.334 900.791L163.617 879.516C163.974 878.898 164.634 878.516 165.349 878.516L189.915 878.516C190.629 878.516 191.289 878.898 191.647 879.516L203.929 900.791C204.287 901.41 204.287 902.172 203.929 902.791L191.647 924.065C191.289 924.684 190.629 925.065 189.915 925.065L165.349 925.065Z" fill="#D80034"/>
<path d="M466.255 931.812C465.541 931.812 464.88 931.431 464.523 930.812L452.24 909.538C451.883 908.919 451.883 908.157 452.24 907.538L464.523 886.264C464.88 885.645 465.541 885.264 466.255 885.264L490.821 885.264C491.535 885.264 492.196 885.645 492.553 886.264L504.836 907.538C505.193 908.157 505.193 908.919 504.836 909.538L492.553 930.812C492.196 931.431 491.535 931.812 490.821 931.812L466.255 931.812Z" fill="#D80034"/>
<path d="M165.36 979.352C164.645 979.352 163.985 978.97 163.628 978.352L151.345 957.077C150.988 956.458 150.988 955.696 151.345 955.077L163.628 933.803C163.985 933.184 164.645 932.803 165.36 932.803L189.925 932.803C190.64 932.803 191.3 933.184 191.657 933.803L203.94 955.077C204.298 955.696 204.298 956.458 203.94 957.077L191.657 978.352C191.3 978.97 190.64 979.352 189.925 979.352L165.36 979.352Z" fill="#C0015D"/>
<path d="M211.681 952.644C210.966 952.644 210.306 952.262 209.949 951.644L197.666 930.369C197.309 929.75 197.309 928.988 197.666 928.369L209.949 907.095C210.306 906.476 210.966 906.095 211.681 906.095L236.247 906.095C236.961 906.095 237.621 906.476 237.979 907.095L250.262 928.369C250.619 928.988 250.619 929.75 250.262 930.369L237.979 951.644C237.621 952.262 236.961 952.644 236.247 952.644L211.681 952.644Z" fill="#D80034"/>
<path d="M165.654 1032.82C164.939 1032.82 164.279 1032.44 163.922 1031.82L151.639 1010.55C151.282 1009.93 151.282 1009.16 151.639 1008.55L163.922 987.271C164.279 986.653 164.939 986.271 165.654 986.271L190.219 986.271C190.934 986.271 191.594 986.653 191.951 987.271L204.234 1008.55C204.591 1009.16 204.591 1009.93 204.234 1010.55L191.951 1031.82C191.594 1032.44 190.934 1032.82 190.219 1032.82L165.654 1032.82Z" fill="#D80034"/>
<path d="M118.632 682.563C117.918 682.563 117.257 682.182 116.9 681.563L104.617 660.289C104.26 659.67 104.26 658.908 104.617 658.289L116.9 637.015C117.257 636.396 117.918 636.015 118.632 636.015L143.198 636.015C143.912 636.015 144.573 636.396 144.93 637.015L157.213 658.289C157.57 658.908 157.57 659.67 157.213 660.289L144.93 681.563C144.573 682.182 143.912 682.563 143.198 682.563L118.632 682.563Z" fill="#5E2B9E"/>
<path d="M165.206 655.74C164.492 655.74 163.832 655.359 163.474 654.74L151.192 633.466C150.834 632.847 150.834 632.085 151.192 631.466L163.474 610.191C163.832 609.572 164.492 609.191 165.206 609.191L189.772 609.191C190.487 609.191 191.147 609.572 191.504 610.191L203.787 631.466C204.144 632.085 204.144 632.847 203.787 633.466L191.504 654.74C191.147 655.359 190.487 655.74 189.772 655.74L165.206 655.74Z" fill="#C0015D"/>
<path d="M118.643 736.851C117.928 736.851 117.268 736.469 116.911 735.851L104.628 714.576C104.271 713.957 104.271 713.195 104.628 712.576L116.911 691.302C117.268 690.683 117.928 690.302 118.643 690.302L143.209 690.302C143.923 690.302 144.583 690.683 144.941 691.302L157.223 712.576C157.581 713.195 157.581 713.957 157.223 714.576L144.941 735.851C144.583 736.469 143.923 736.851 143.209 736.851L118.643 736.851Z" fill="#C0015D"/>
<path d="M211.528 629.032C210.813 629.032 210.153 628.651 209.796 628.032L197.513 606.758C197.156 606.139 197.156 605.377 197.513 604.758L209.796 583.483C210.153 582.864 210.813 582.483 211.528 582.483L236.093 582.483C236.808 582.483 237.468 582.864 237.825 583.483L250.108 604.758C250.465 605.377 250.465 606.139 250.108 606.758L237.825 628.032C237.468 628.651 236.808 629.032 236.093 629.032L211.528 629.032Z" fill="#E44A9E"/>
<path d="M164.964 710.142C164.25 710.142 163.589 709.76 163.232 709.142L150.949 687.867C150.592 687.248 150.592 686.486 150.949 685.867L163.232 664.593C163.589 663.974 164.25 663.593 164.964 663.593L189.53 663.593C190.244 663.593 190.905 663.974 191.262 664.593L203.545 685.867C203.902 686.486 203.902 687.248 203.545 687.867L191.262 709.142C190.905 709.76 190.244 710.142 189.53 710.142L164.964 710.142Z" fill="#D80034"/>
<path d="M164.904 547.984C164.189 547.984 163.529 547.603 163.172 546.984L150.889 525.71C150.532 525.091 150.532 524.329 150.889 523.71L163.172 502.435C163.529 501.817 164.189 501.435 164.904 501.435L189.469 501.435C190.184 501.435 190.844 501.817 191.201 502.435L203.484 523.71C203.841 524.329 203.841 525.091 203.484 525.71L191.201 546.984C190.844 547.603 190.184 547.984 189.469 547.984L164.904 547.984Z" fill="#D80034"/>
<path d="M211.477 521.162C210.762 521.162 210.102 520.781 209.745 520.162L197.462 498.888C197.105 498.269 197.105 497.506 197.462 496.888L209.745 475.613C210.102 474.994 210.762 474.613 211.477 474.613L236.043 474.613C236.757 474.613 237.417 474.994 237.775 475.613L250.057 496.888C250.415 497.506 250.415 498.269 250.057 498.888L237.775 520.162C237.417 520.781 236.757 521.162 236.043 521.162L211.477 521.162Z" fill="#C0015D"/>
<path d="M164.914 602.271C164.2 602.271 163.54 601.89 163.182 601.271L150.9 579.997C150.542 579.378 150.542 578.616 150.9 577.997L163.182 556.723C163.54 556.104 164.2 555.723 164.914 555.723L189.48 555.723C190.195 555.723 190.855 556.104 191.212 556.723L203.495 577.997C203.852 578.616 203.852 579.378 203.495 579.997L191.212 601.271C190.855 601.89 190.195 602.271 189.48 602.271L164.914 602.271Z" fill="#5E2B9E"/>
<path d="M154.504 423.337C153.79 423.337 153.129 422.956 152.772 422.337L140.489 401.062C140.132 400.444 140.132 399.681 140.489 399.062L152.772 377.788C153.129 377.169 153.79 376.788 154.504 376.788L179.07 376.788C179.784 376.788 180.445 377.169 180.802 377.788L193.085 399.062C193.442 399.681 193.442 400.444 193.085 401.062L180.802 422.337C180.445 422.956 179.784 423.337 179.07 423.337L154.504 423.337Z" fill="#5E2B9E"/>
<path d="M211.236 575.563C210.521 575.563 209.861 575.182 209.504 574.563L197.221 553.289C196.864 552.67 196.864 551.908 197.221 551.289L209.504 530.015C209.861 529.396 210.521 529.015 211.236 529.015L235.801 529.015C236.516 529.015 237.176 529.396 237.533 530.015L249.816 551.289C250.173 551.908 250.173 552.67 249.816 553.289L237.533 574.563C237.176 575.182 236.516 575.563 235.801 575.563L211.236 575.563Z" fill="#C0015D"/>
<path d="M71.725 602.334C71.0104 602.334 70.3502 601.953 69.9929 601.334L57.7101 580.059C57.3528 579.441 57.3528 578.678 57.7101 578.059L69.9929 556.785C70.3502 556.166 71.0104 555.785 71.725 555.785L96.2906 555.785C97.0051 555.785 97.6654 556.166 98.0227 556.785L110.305 578.059C110.663 578.678 110.663 579.441 110.305 580.059L98.0227 601.334C97.6654 601.953 97.0051 602.334 96.2906 602.334L71.725 602.334Z" fill="#D80034"/>
<path d="M71.7357 656.62C71.0212 656.62 70.3609 656.239 70.0036 655.62L57.7208 634.346C57.3636 633.727 57.3636 632.964 57.7208 632.346L70.0036 611.071C70.3609 610.452 71.0212 610.071 71.7357 610.071L96.3013 610.071C97.0159 610.071 97.6761 610.452 98.0334 611.071L110.316 632.346C110.673 632.964 110.673 633.727 110.316 634.346L98.0334 655.62C97.6761 656.239 97.0159 656.62 96.3013 656.62L71.7357 656.62Z" fill="#C0015D"/>
<path d="M118.057 629.912C117.342 629.912 116.682 629.531 116.325 628.912L104.042 607.638C103.685 607.019 103.685 606.256 104.042 605.638L116.325 584.363C116.682 583.744 117.342 583.363 118.057 583.363L142.623 583.363C143.337 583.363 143.997 583.744 144.355 584.363L156.638 605.638C156.995 606.256 156.995 607.019 156.638 607.638L144.355 628.912C143.997 629.531 143.337 629.912 142.623 629.912L118.057 629.912Z" fill="#D80034"/>
<path d="M72.0277 710.089C71.3132 710.089 70.6529 709.708 70.2956 709.089L58.0128 687.814C57.6556 687.196 57.6556 686.433 58.0128 685.814L70.2956 664.54C70.6529 663.921 71.3132 663.54 72.0277 663.54L96.5933 663.54C97.3079 663.54 97.9681 663.921 98.3254 664.54L110.608 685.814C110.965 686.433 110.965 687.196 110.608 687.814L98.3254 709.089C97.9681 709.708 97.3079 710.089 96.5933 710.089L72.0277 710.089Z" fill="#D80034"/>
<path d="M72.4134 925.013C71.6989 925.013 71.0386 924.631 70.6814 924.013L58.3986 902.738C58.0413 902.119 58.0413 901.357 58.3986 900.738L70.6814 879.464C71.0386 878.845 71.6989 878.464 72.4134 878.464L96.9791 878.464C97.6936 878.464 98.3539 878.845 98.7111 879.464L110.994 900.738C111.351 901.357 111.351 902.119 110.994 902.738L98.7111 924.013C98.3539 924.631 97.6936 925.013 96.9791 925.013L72.4134 925.013Z" fill="#5E2B9E"/>
<path d="M118.988 898.189C118.273 898.189 117.613 897.808 117.256 897.189L104.973 875.915C104.616 875.296 104.616 874.534 104.973 873.915L117.256 852.64C117.613 852.022 118.273 851.64 118.988 851.64L143.553 851.64C144.268 851.64 144.928 852.022 145.285 852.64L157.568 873.915C157.925 874.534 157.925 875.296 157.568 875.915L145.285 897.189C144.928 897.808 144.268 898.189 143.553 898.189L118.988 898.189Z" fill="#C0015D"/>
<path d="M72.4242 979.299C71.7096 979.299 71.0494 978.918 70.6921 978.299L58.4093 957.024C58.052 956.406 58.052 955.643 58.4093 955.024L70.6921 933.75C71.0494 933.131 71.7096 932.75 72.4242 932.75L96.9898 932.75C97.7043 932.75 98.3646 933.131 98.7219 933.75L111.005 955.024C111.362 955.643 111.362 956.406 111.005 957.024L98.7219 978.299C98.3646 978.918 97.7043 979.299 96.9898 979.299L72.4242 979.299Z" fill="#C0015D"/>
<path d="M165.309 871.481C164.594 871.481 163.934 871.1 163.577 870.481L151.294 849.207C150.937 848.588 150.937 847.826 151.294 847.207L163.577 825.932C163.934 825.314 164.594 824.932 165.309 824.932L189.875 824.932C190.589 824.932 191.249 825.314 191.607 825.932L203.889 847.207C204.247 847.826 204.247 848.588 203.889 849.207L191.607 870.481C191.249 871.1 190.589 871.481 189.875 871.481L165.309 871.481Z" fill="#E44A9E"/>
<path d="M118.744 952.591C118.029 952.591 117.369 952.21 117.011 951.591L104.729 930.316C104.371 929.698 104.371 928.935 104.729 928.316L117.011 907.042C117.369 906.423 118.029 906.042 118.744 906.042L143.309 906.042C144.024 906.042 144.684 906.423 145.041 907.042L157.324 928.316C157.681 928.935 157.681 929.698 157.324 930.316L145.041 951.591C144.684 952.21 144.024 952.591 143.309 952.591L118.744 952.591Z" fill="#D80034"/>
<path d="M118.683 790.434C117.968 790.434 117.308 790.052 116.951 789.434L104.668 768.159C104.311 767.54 104.311 766.778 104.668 766.159L116.951 744.885C117.308 744.266 117.968 743.885 118.683 743.885L143.249 743.885C143.963 743.885 144.623 744.266 144.981 744.885L157.263 766.159C157.621 766.778 157.621 767.54 157.263 768.159L144.981 789.434C144.623 790.052 143.963 790.434 143.249 790.434L118.683 790.434Z" fill="#D80034"/>
<path d="M165.256 763.611C164.542 763.611 163.881 763.23 163.524 762.611L151.241 741.337C150.884 740.718 150.884 739.956 151.241 739.337L163.524 718.062C163.881 717.444 164.542 717.062 165.256 717.062L189.822 717.062C190.536 717.062 191.197 717.444 191.554 718.062L203.837 739.337C204.194 739.956 204.194 740.718 203.837 741.337L191.554 762.611C191.197 763.23 190.536 763.611 189.822 763.611L165.256 763.611Z" fill="#C0015D"/>
<path d="M382.405 852.263C381.69 852.263 381.03 851.881 380.673 851.263L368.39 829.988C368.033 829.369 368.033 828.607 368.39 827.988L380.673 806.714C381.03 806.095 381.69 805.714 382.405 805.714L406.97 805.714C407.685 805.714 408.345 806.095 408.702 806.714L420.985 827.988C421.342 828.607 421.342 829.369 420.985 829.988L408.702 851.263C408.345 851.881 407.685 852.263 406.97 852.263L382.405 852.263Z" fill="#C0015D"/>
<path d="M118.694 844.721C117.979 844.721 117.319 844.339 116.962 843.721L104.679 822.446C104.322 821.827 104.322 821.065 104.679 820.446L116.962 799.172C117.319 798.553 117.979 798.172 118.694 798.172L143.259 798.172C143.974 798.172 144.634 798.553 144.991 799.172L157.274 820.446C157.631 821.065 157.631 821.827 157.274 822.446L144.991 843.721C144.634 844.339 143.974 844.721 143.259 844.721L118.694 844.721Z" fill="#5E2B9E"/>
<path d="M166.331 817.862C165.617 817.862 164.957 817.481 164.599 816.862L152.317 795.588C151.959 794.969 151.959 794.207 152.317 793.588L164.599 772.313C164.957 771.695 165.617 771.313 166.331 771.313L190.897 771.313C191.612 771.313 192.272 771.695 192.629 772.313L204.912 793.588C205.269 794.207 205.269 794.969 204.912 795.588L192.629 816.862C192.272 817.481 191.612 817.862 190.897 817.862L166.331 817.862Z" fill="#C0015D"/>
<path d="M25.5043 844.782C24.7897 844.782 24.1295 844.401 23.7722 843.782L11.4894 822.508C11.1321 821.889 11.1321 821.127 11.4894 820.508L23.7722 799.233C24.1295 798.614 24.7897 798.233 25.5043 798.233L50.0699 798.233C50.7844 798.233 51.4447 798.614 51.8019 799.233L64.0848 820.508C64.442 821.127 64.442 821.889 64.0848 822.508L51.8019 843.782C51.4447 844.401 50.7844 844.782 50.0699 844.782L25.5043 844.782Z" fill="#D80034"/>
<path d="M25.515 899.069C24.8005 899.069 24.1402 898.688 23.7829 898.069L11.5001 876.795C11.1429 876.176 11.1429 875.414 11.5001 874.795L23.7829 853.52C24.1402 852.902 24.8005 852.52 25.515 852.52L50.0806 852.52C50.7952 852.52 51.4554 852.902 51.8127 853.52L64.0955 874.795C64.4528 875.414 64.4528 876.176 64.0955 876.795L51.8127 898.069C51.4554 898.688 50.7952 899.069 50.0806 899.069L25.515 899.069Z" fill="#C0015D"/>
<path d="M71.8363 872.36C71.1218 872.36 70.4615 871.979 70.1042 871.36L57.8214 850.086C57.4641 849.467 57.4641 848.705 57.8214 848.086L70.1042 826.811C70.4615 826.193 71.1218 825.811 71.8363 825.811L96.4019 825.811C97.1165 825.811 97.7767 826.193 98.134 826.811L110.417 848.086C110.774 848.705 110.774 849.467 110.417 850.086L98.134 871.36C97.7767 871.979 97.1165 872.36 96.4019 872.36L71.8363 872.36Z" fill="#D80034"/>
<path d="M25.8089 952.539C25.0944 952.539 24.4342 952.158 24.0769 951.539L11.7941 930.265C11.4368 929.646 11.4368 928.883 11.7941 928.265L24.0769 906.99C24.4342 906.371 25.0944 905.99 25.8089 905.99L50.3746 905.99C51.0891 905.99 51.7494 906.371 52.1066 906.99L64.3895 928.265C64.7467 928.883 64.7467 929.646 64.3895 930.265L52.1066 951.539C51.7494 952.158 51.0891 952.539 50.3746 952.539L25.8089 952.539Z" fill="#D80034"/>
<path d="M843.342 80.9815C843.699 81.6003 843.699 82.3627 843.342 82.9815L831.059 104.256C830.702 104.875 830.041 105.256 829.327 105.256L804.761 105.256C804.047 105.256 803.386 104.875 803.029 104.256L790.746 82.9815C790.389 82.3627 790.389 81.6003 790.746 80.9815L803.029 59.707C803.386 59.0882 804.047 58.707 804.761 58.707L829.327 58.707C830.041 58.707 830.702 59.0882 831.059 59.707L843.342 80.9815Z" fill="#5E2B9E"/>
<path d="M797.247 53.3457C797.604 53.9645 797.604 54.7269 797.247 55.3457L784.964 76.6202C784.607 77.239 783.947 77.6202 783.232 77.6202L758.666 77.6202C757.952 77.6202 757.292 77.239 756.934 76.6202L744.651 55.3457C744.294 54.7269 744.294 53.9645 744.651 53.3457L756.934 32.0713C757.292 31.4525 757.952 31.0713 758.666 31.0713L783.232 31.0713C783.947 31.0713 784.607 31.4525 784.964 32.0713L797.247 53.3457Z" fill="#C0015D"/>
<path d="M890.763 54.5547C891.121 55.1735 891.121 55.9359 890.763 56.5547L878.481 77.8292C878.123 78.448 877.463 78.8292 876.749 78.8292L852.183 78.8292C851.468 78.8292 850.808 78.448 850.451 77.8292L838.168 56.5547C837.811 55.9359 837.811 55.1735 838.168 54.5547L850.451 33.2803C850.808 32.6615 851.468 32.2803 852.183 32.2803L876.749 32.2803C877.463 32.2803 878.123 32.6615 878.481 33.2803L890.763 54.5547Z" fill="#C0015D"/>
<path d="M751.372 25.875C751.729 26.4938 751.729 27.2562 751.372 27.875L739.089 49.1495C738.732 49.7683 738.072 50.1495 737.357 50.1495L712.791 50.1495C712.077 50.1495 711.417 49.7683 711.059 49.1495L698.776 27.875C698.419 27.2562 698.419 26.4938 698.776 25.875L711.059 4.60057C711.417 3.98177 712.077 3.60057 712.791 3.60057L737.357 3.60057C738.072 3.60057 738.732 3.98177 739.089 4.60057L751.372 25.875Z" fill="#D80034"/>
<path d="M844.889 27.084C845.247 27.7028 845.247 28.4652 844.889 29.084L832.607 50.3585C832.249 50.9773 831.589 51.3585 830.875 51.3585L806.309 51.3585C805.594 51.3585 804.934 50.9773 804.577 50.3585L792.294 29.084C791.937 28.4652 791.937 27.7028 792.294 27.084L804.577 5.80956C804.934 5.19075 805.594 4.80956 806.309 4.80956L830.875 4.80956C831.589 4.80956 832.249 5.19075 832.607 5.80956L844.889 27.084Z" fill="#D80034"/>
<path d="M703.256 106.048C703.613 106.667 703.613 107.429 703.256 108.048L690.973 129.322C690.616 129.941 689.955 130.322 689.241 130.322H664.675C663.961 130.322 663.3 129.941 662.943 129.322L650.66 108.048C650.303 107.429 650.303 106.667 650.66 106.048L662.943 84.7734C663.3 84.1546 663.961 83.7734 664.675 83.7734L689.241 83.7734C689.955 83.7734 690.616 84.1546 690.973 84.7734L703.256 106.048Z" fill="#D80034"/>
<path d="M657.161 78.4112C657.518 79.03 657.518 79.7924 657.161 80.4112L644.878 101.686C644.521 102.304 643.861 102.686 643.146 102.686L618.58 102.686C617.866 102.686 617.206 102.304 616.848 101.686L604.566 80.4112C604.208 79.7924 604.208 79.03 604.566 78.4112L616.848 57.1367C617.206 56.5179 617.866 56.1367 618.58 56.1367L643.146 56.1367C643.861 56.1367 644.521 56.5179 644.878 57.1367L657.161 78.4112Z" fill="#E44A9E"/>
<path d="M593.045 131.338C593.402 131.957 593.402 132.719 593.045 133.338L580.762 154.612C580.405 155.231 579.744 155.612 579.03 155.612H554.464C553.75 155.612 553.089 155.231 552.732 154.612L540.449 133.338C540.092 132.719 540.092 131.957 540.449 131.338L552.732 110.063C553.089 109.445 553.75 109.063 554.464 109.063L579.03 109.063C579.744 109.063 580.405 109.445 580.762 110.063L593.045 131.338Z" fill="#C0015D"/>
<path d="M750.678 79.6211C751.035 80.2399 751.035 81.0023 750.678 81.6211L738.395 102.896C738.037 103.514 737.377 103.896 736.663 103.896L712.097 103.896C711.382 103.896 710.722 103.514 710.365 102.896L698.082 81.6211C697.725 81.0023 697.725 80.2399 698.082 79.6211L710.365 58.3467C710.722 57.7279 711.382 57.3467 712.097 57.3467L736.663 57.3467C737.377 57.3467 738.037 57.7279 738.395 58.3467L750.678 79.6211Z" fill="#5E2B9E"/>
<path d="M704.804 52.1504C705.161 52.7692 705.161 53.5316 704.804 54.1504L692.521 75.4249C692.163 76.0437 691.503 76.4249 690.789 76.4249L666.223 76.4249C665.508 76.4249 664.848 76.0437 664.491 75.4249L652.208 54.1504C651.851 53.5316 651.851 52.7692 652.208 52.1504L664.491 30.876C664.848 30.2572 665.508 29.876 666.223 29.876L690.789 29.876C691.503 29.876 692.163 30.2572 692.521 30.876L704.804 52.1504Z" fill="#C0015D"/>
<path d="M796.08 161.002C796.437 161.621 796.437 162.383 796.08 163.002L783.797 184.276C783.44 184.895 782.78 185.276 782.065 185.276H757.499C756.785 185.276 756.125 184.895 755.767 184.276L743.484 163.002C743.127 162.383 743.127 161.621 743.484 161.002L755.767 139.728C756.125 139.109 756.785 138.728 757.499 138.728H782.065C782.78 138.728 783.44 139.109 783.797 139.728L796.08 161.002Z" fill="#D80034"/>
<path d="M843.499 134.575C843.856 135.194 843.856 135.956 843.499 136.575L831.216 157.85C830.859 158.469 830.198 158.85 829.484 158.85H804.918C804.204 158.85 803.544 158.469 803.186 157.85L790.903 136.575C790.546 135.956 790.546 135.194 790.903 134.575L803.186 113.301C803.544 112.682 804.204 112.301 804.918 112.301L829.484 112.301C830.198 112.301 830.859 112.682 831.216 113.301L843.499 134.575Z" fill="#C0015D"/>
<path d="M797.627 107.105C797.984 107.723 797.984 108.486 797.627 109.105L785.344 130.379C784.987 130.998 784.326 131.379 783.612 131.379H759.046C758.332 131.379 757.671 130.998 757.314 130.379L745.031 109.105C744.674 108.486 744.674 107.723 745.031 107.105L757.314 85.8301C757.671 85.2113 758.332 84.8301 759.046 84.8301L783.612 84.8301C784.326 84.8301 784.987 85.2113 785.344 85.8301L797.627 107.105Z" fill="#D80034"/>
<path d="M890.069 108.301C890.426 108.92 890.426 109.682 890.069 110.301L877.786 131.575C877.429 132.194 876.769 132.575 876.054 132.575H851.489C850.774 132.575 850.114 132.194 849.757 131.575L837.474 110.301C837.116 109.682 837.116 108.92 837.474 108.301L849.757 87.0264C850.114 86.4076 850.774 86.0264 851.489 86.0264L876.054 86.0264C876.769 86.0264 877.429 86.4076 877.786 87.0264L890.069 108.301Z" fill="#D80034"/>
<path d="M795.162 214.583C795.519 215.202 795.519 215.964 795.162 216.583L782.879 237.858C782.522 238.476 781.862 238.858 781.147 238.858H756.581C755.867 238.858 755.207 238.476 754.849 237.858L742.567 216.583C742.209 215.964 742.209 215.202 742.567 214.583L754.849 193.309C755.207 192.69 755.867 192.309 756.581 192.309H781.147C781.862 192.309 782.522 192.69 782.879 193.309L795.162 214.583Z" fill="#C0015D"/>
<path d="M888.679 215.791C889.036 216.41 889.036 217.172 888.679 217.791L876.396 239.066C876.038 239.684 875.378 240.066 874.664 240.066H850.098C849.383 240.066 848.723 239.684 848.366 239.066L836.083 217.791C835.726 217.172 835.726 216.41 836.083 215.791L848.366 194.517C848.723 193.898 849.383 193.517 850.098 193.517H874.664C875.378 193.517 876.038 193.898 876.396 194.517L888.679 215.791Z" fill="#C0015D"/>
<path d="M749.288 187.112C749.645 187.731 749.645 188.494 749.288 189.112L737.005 210.387C736.648 211.006 735.988 211.387 735.273 211.387H710.707C709.993 211.387 709.333 211.006 708.975 210.387L696.692 189.112C696.335 188.494 696.335 187.731 696.692 187.112L708.975 165.838C709.333 165.219 709.993 164.838 710.707 164.838H735.273C735.988 164.838 736.648 165.219 737.005 165.838L749.288 187.112Z" fill="#D80034"/>
<path d="M842.804 188.321C843.162 188.94 843.162 189.703 842.804 190.321L830.522 211.596C830.164 212.215 829.504 212.596 828.79 212.596H804.224C803.509 212.596 802.849 212.215 802.492 211.596L790.209 190.321C789.852 189.703 789.852 188.94 790.209 188.321L802.492 167.047C802.849 166.428 803.509 166.047 804.224 166.047H828.79C829.504 166.047 830.164 166.428 830.522 167.047L842.804 188.321Z" fill="#D80034"/>
<path d="M506.125 35.6055C506.482 36.2243 506.482 36.9867 506.125 37.6055L493.842 58.88C493.485 59.4988 492.824 59.88 492.11 59.88L467.544 59.88C466.83 59.88 466.169 59.4988 465.812 58.88L453.529 37.6055C453.172 36.9867 453.172 36.2243 453.529 35.6055L465.812 14.331C466.169 13.7122 466.83 13.331 467.544 13.331L492.11 13.331C492.824 13.331 493.485 13.7122 493.842 14.331L506.125 35.6055Z" fill="#D80034"/>
<path d="M702.718 213.388C703.075 214.007 703.075 214.769 702.718 215.388L690.435 236.662C690.077 237.281 689.417 237.662 688.703 237.662H664.137C663.423 237.662 662.762 237.281 662.405 236.662L650.122 215.388C649.765 214.769 649.765 214.007 650.122 213.388L662.405 192.113C662.762 191.494 663.423 191.113 664.137 191.113H688.703C689.417 191.113 690.077 191.494 690.435 192.113L702.718 213.388Z" fill="#C0015D"/>
<path d="M983.586 109.509C983.943 110.128 983.943 110.89 983.586 111.509L971.303 132.783C970.946 133.402 970.285 133.783 969.571 133.783H945.005C944.291 133.783 943.63 133.402 943.273 132.783L930.99 111.509C930.633 110.89 930.633 110.128 930.99 109.509L943.273 88.2344C943.63 87.6156 944.291 87.2344 945.005 87.2344L969.571 87.2344C970.285 87.2344 970.946 87.6156 971.303 88.2344L983.586 109.509Z" fill="#D80034"/>
<path d="M935.471 189.682C935.828 190.3 935.828 191.063 935.471 191.682L923.188 212.956C922.83 213.575 922.17 213.956 921.456 213.956H896.89C896.175 213.956 895.515 213.575 895.158 212.956L882.875 191.682C882.518 191.063 882.518 190.3 882.875 189.682L895.158 168.407C895.515 167.788 896.175 167.407 896.89 167.407H921.456C922.17 167.407 922.83 167.788 923.188 168.407L935.471 189.682Z" fill="#D80034"/>
<path d="M889.374 162.047C889.731 162.666 889.731 163.428 889.374 164.047L877.091 185.321C876.734 185.94 876.073 186.321 875.359 186.321H850.793C850.079 186.321 849.419 185.94 849.061 185.321L836.778 164.047C836.421 163.428 836.421 162.666 836.778 162.047L849.061 140.772C849.419 140.154 850.079 139.772 850.793 139.772H875.359C876.073 139.772 876.734 140.154 877.091 140.772L889.374 162.047Z" fill="#C0015D"/>
<path d="M982.89 163.255C983.248 163.874 983.248 164.636 982.89 165.255L970.608 186.529C970.25 187.148 969.59 187.529 968.876 187.529H944.31C943.595 187.529 942.935 187.148 942.578 186.529L930.295 165.255C929.938 164.636 929.938 163.874 930.295 163.255L942.578 141.98C942.935 141.362 943.595 140.98 944.31 140.98H968.876C969.59 140.98 970.25 141.362 970.608 141.98L982.89 163.255Z" fill="#5E2B9E"/>
<path d="M937.018 135.784C937.376 136.403 937.376 137.165 937.018 137.784L924.736 159.059C924.378 159.677 923.718 160.059 923.003 160.059H898.438C897.723 160.059 897.063 159.677 896.706 159.059L884.423 137.784C884.066 137.165 884.066 136.403 884.423 135.784L896.706 114.51C897.063 113.891 897.723 113.51 898.438 113.51L923.003 113.51C923.718 113.51 924.378 113.891 924.736 114.51L937.018 135.784Z" fill="#C0015D"/>
<path d="M814.559 358.082C814.916 358.701 814.916 359.463 814.559 360.082L802.275 381.356C801.918 381.975 801.257 382.356 800.543 382.356L775.977 382.355C775.263 382.355 774.603 381.973 774.245 381.354L761.964 360.079C761.606 359.461 761.606 358.698 761.964 358.079L774.248 336.806C774.605 336.187 775.265 335.806 775.98 335.806L800.545 335.807C801.26 335.807 801.92 336.188 802.277 336.807L814.559 358.082Z" fill="#5E2B9E"/>
<path d="M769.743 328.419C770.1 329.038 770.1 329.8 769.743 330.419L757.459 351.693C757.101 352.312 756.441 352.693 755.727 352.693L731.161 352.691C730.446 352.691 729.786 352.31 729.429 351.691L717.147 330.416C716.79 329.797 716.79 329.035 717.147 328.416L729.431 307.142C729.788 306.524 730.449 306.142 731.163 306.143L755.729 306.144C756.443 306.144 757.104 306.525 757.461 307.144L769.743 328.419Z" fill="#C0015D"/>
<path d="M863.113 333.797C863.47 334.416 863.47 335.178 863.113 335.797L850.829 357.071C850.471 357.69 849.811 358.071 849.097 358.071L824.531 358.069C823.816 358.069 823.156 357.688 822.799 357.069L810.517 335.794C810.16 335.175 810.16 334.413 810.517 333.794L822.801 312.52C823.159 311.902 823.819 311.52 824.533 311.52L849.099 311.522C849.814 311.522 850.474 311.903 850.831 312.522L863.113 333.797Z" fill="#C0015D"/>
<path d="M725.138 298.929C725.495 299.548 725.495 300.31 725.138 300.929L712.854 322.203C712.497 322.821 711.837 323.203 711.122 323.202L686.556 323.201C685.842 323.201 685.182 322.82 684.824 322.201L672.543 300.926C672.185 300.307 672.185 299.545 672.543 298.926L684.827 277.652C685.184 277.033 685.844 276.652 686.559 276.652L711.124 276.654C711.839 276.654 712.499 277.035 712.856 277.654L725.138 298.929Z" fill="#D80034"/>
<path d="M818.508 304.308C818.865 304.926 818.865 305.689 818.508 306.308L806.224 327.581C805.867 328.2 805.207 328.581 804.492 328.581L779.926 328.58C779.212 328.58 778.552 328.199 778.194 327.58L765.913 306.305C765.556 305.686 765.556 304.924 765.913 304.305L778.197 283.031C778.554 282.412 779.214 282.031 779.929 282.031L804.495 282.032C805.209 282.032 805.869 282.414 806.227 283.033L818.508 304.308Z" fill="#D80034"/>
<path d="M673.495 376.875C673.852 377.494 673.852 378.256 673.494 378.875L661.211 400.149C660.853 400.768 660.193 401.149 659.478 401.149L634.913 401.148C634.198 401.147 633.538 400.766 633.181 400.147L620.899 378.872C620.542 378.254 620.542 377.491 620.899 376.872L633.183 355.598C633.54 354.98 634.201 354.599 634.915 354.599L659.481 354.6C660.195 354.6 660.856 354.981 661.213 355.6L673.495 376.875Z" fill="#D80034"/>
<path d="M674.979 489.66C675.336 490.279 675.336 491.041 674.979 491.66L662.695 512.934C662.338 513.553 661.677 513.934 660.963 513.934L636.397 513.933C635.683 513.933 635.022 513.551 634.665 512.933L622.383 491.657C622.026 491.039 622.026 490.276 622.384 489.657L634.667 468.384C635.025 467.765 635.685 467.384 636.4 467.384L660.965 467.385C661.68 467.385 662.34 467.766 662.697 468.385L674.979 489.66Z" fill="#D80034"/>
<path d="M628.678 347.21C629.035 347.829 629.035 348.591 628.678 349.21L616.394 370.484C616.037 371.103 615.377 371.484 614.662 371.484L590.096 371.482C589.382 371.482 588.722 371.101 588.364 370.482L576.083 349.207C575.725 348.588 575.725 347.826 576.083 347.207L588.367 325.933C588.724 325.315 589.384 324.933 590.099 324.934L614.664 324.935C615.379 324.935 616.039 325.316 616.396 325.935L628.678 347.21Z" fill="#C0015D"/>
<path d="M722.048 352.591C722.406 353.21 722.405 353.972 722.048 354.591L709.764 375.865C709.407 376.483 708.747 376.865 708.032 376.865L683.467 376.863C682.752 376.863 682.092 376.482 681.735 375.863L669.453 354.588C669.096 353.969 669.096 353.207 669.453 352.588L681.737 331.314C682.094 330.696 682.754 330.314 683.469 330.314L708.035 330.316C708.749 330.316 709.409 330.697 709.767 331.316L722.048 352.591Z" fill="#5E2B9E"/>
<path d="M677.446 323.101C677.803 323.719 677.803 324.482 677.446 325.101L665.162 346.374C664.804 346.993 664.144 347.374 663.43 347.374L638.864 347.373C638.149 347.373 637.489 346.992 637.132 346.373L624.85 325.098C624.493 324.479 624.493 323.717 624.85 323.098L637.134 301.824C637.492 301.205 638.152 300.824 638.866 300.824L663.432 300.825C664.147 300.825 664.807 301.207 665.164 301.826L677.446 323.101Z" fill="#C0015D"/>
<path d="M763.774 435.915C764.131 436.534 764.131 437.296 763.774 437.915L751.49 459.189C751.133 459.808 750.472 460.189 749.758 460.189L725.192 460.188C724.478 460.188 723.817 459.806 723.46 459.187L711.178 437.912C710.821 437.294 710.821 436.531 711.178 435.912L723.462 414.639C723.82 414.02 724.48 413.639 725.194 413.639L749.76 413.64C750.475 413.64 751.135 414.021 751.492 414.64L763.774 435.915Z" fill="#D80034"/>
<path d="M812.328 411.631C812.685 412.25 812.685 413.012 812.327 413.631L800.044 434.905C799.686 435.523 799.026 435.905 798.311 435.905L773.746 435.903C773.031 435.903 772.371 435.522 772.014 434.903L759.732 413.628C759.375 413.009 759.375 412.247 759.732 411.628L772.016 390.354C772.373 389.736 773.034 389.354 773.748 389.354L798.314 389.356C799.028 389.356 799.689 389.737 800.046 390.356L812.328 411.631Z" fill="#C0015D"/>
<path d="M767.723 382.141C768.08 382.759 768.08 383.522 767.723 384.141L755.439 405.414C755.082 406.033 754.422 406.414 753.707 406.414L729.141 406.413C728.427 406.413 727.767 406.032 727.409 405.413L715.128 384.138C714.77 383.519 714.77 382.757 715.128 382.138L727.412 360.864C727.769 360.245 728.429 359.864 729.144 359.864L753.709 359.865C754.424 359.865 755.084 360.247 755.441 360.866L767.723 382.141Z" fill="#D80034"/>
<path d="M1029.67 244.117C1030.03 244.736 1030.03 245.499 1029.67 246.117L1017.4 267.397C1017.04 268.015 1016.38 268.397 1015.67 268.397L991.099 268.407C990.385 268.407 989.724 268.026 989.367 267.407L977.076 246.137C976.719 245.519 976.718 244.756 977.075 244.137L989.35 222.858C989.707 222.239 990.367 221.858 991.082 221.858L1015.65 221.848C1016.36 221.848 1017.02 222.229 1017.38 222.848L1029.67 244.117Z" fill="#C0015D"/>
<path d="M983.435 217.26C983.793 217.879 983.793 218.641 983.436 219.26L971.161 240.539C970.804 241.158 970.144 241.54 969.43 241.54L944.864 241.549C944.15 241.549 943.489 241.168 943.132 240.55L930.841 219.28C930.483 218.661 930.483 217.899 930.84 217.28L943.115 196.001C943.472 195.382 944.132 195 944.846 195L969.412 194.991C970.127 194.991 970.787 195.372 971.144 195.99L983.435 217.26Z" fill="#D80034"/>
<path d="M936.391 298.066C936.749 298.684 936.749 299.447 936.392 300.066L924.117 321.345C923.76 321.964 923.1 322.345 922.386 322.345L897.82 322.355C897.106 322.355 896.445 321.974 896.088 321.355L883.797 300.086C883.439 299.467 883.439 298.705 883.796 298.086L896.071 276.806C896.428 276.188 897.088 275.806 897.802 275.806L922.368 275.797C923.083 275.796 923.743 276.177 924.101 276.796L936.391 298.066Z" fill="#D80034"/>
<path d="M889.931 271.046C890.289 271.665 890.289 272.427 889.932 273.046L877.657 294.325C877.3 294.944 876.64 295.326 875.926 295.326L851.36 295.335C850.646 295.335 849.985 294.955 849.628 294.336L837.337 273.066C836.979 272.447 836.979 271.685 837.336 271.066L849.611 249.787C849.968 249.168 850.628 248.787 851.343 248.786L875.908 248.777C876.623 248.777 877.283 249.158 877.641 249.776L889.931 271.046Z" fill="#E44A9E"/>
<path d="M983.457 271.01C983.814 271.629 983.815 272.391 983.458 273.01L971.183 294.289C970.826 294.908 970.166 295.29 969.451 295.29L944.886 295.299C944.171 295.299 943.511 294.918 943.153 294.3L930.862 273.03C930.505 272.411 930.504 271.649 930.861 271.03L943.136 249.751C943.493 249.132 944.153 248.75 944.868 248.75L969.434 248.741C970.148 248.741 970.808 249.122 971.166 249.74L983.457 271.01Z" fill="#5E2B9E"/>
<path d="M937.221 244.154C937.579 244.772 937.579 245.535 937.222 246.154L924.947 267.433C924.59 268.052 923.93 268.433 923.216 268.433L898.65 268.443C897.936 268.443 897.275 268.062 896.918 267.443L884.627 246.173C884.269 245.555 884.269 244.792 884.626 244.173L896.901 222.894C897.258 222.275 897.918 221.894 898.633 221.894L923.198 221.884C923.913 221.884 924.573 222.265 924.931 222.884L937.221 244.154Z" fill="#C0015D"/>
<path d="M1029.94 351.781C1030.29 352.399 1030.29 353.162 1029.94 353.781L1017.66 375.06C1017.3 375.679 1016.64 376.06 1015.93 376.06L991.364 376.07C990.65 376.07 989.989 375.689 989.632 375.07L977.341 353.8C976.983 353.182 976.983 352.419 977.34 351.8L989.615 330.521C989.972 329.902 990.632 329.521 991.346 329.521L1015.91 329.511C1016.63 329.511 1017.29 329.892 1017.64 330.511L1029.94 351.781Z" fill="#D80034"/>
<path d="M1030.77 297.867C1031.12 298.486 1031.13 299.249 1030.77 299.867L1018.49 321.147C1018.14 321.765 1017.48 322.147 1016.76 322.147L992.196 322.157C991.482 322.157 990.821 321.776 990.464 321.157L978.173 299.887C977.815 299.269 977.815 298.506 978.172 297.887L990.447 276.608C990.804 275.989 991.464 275.608 992.178 275.608L1016.74 275.598C1017.46 275.598 1018.12 275.979 1018.48 276.598L1030.77 297.867Z" fill="#D80034"/>
<path d="M589.156 903.361C588.799 902.742 588.799 901.98 589.156 901.361L601.439 880.087C601.797 879.468 602.457 879.087 603.171 879.087H627.737C628.451 879.087 629.112 879.468 629.469 880.087L641.752 901.361C642.109 901.98 642.109 902.742 641.752 903.361L629.469 924.636C629.112 925.255 628.451 925.636 627.737 925.636H603.171C602.457 925.636 601.797 925.255 601.439 924.636L589.156 903.361Z" fill="#5E2B9E"/>
<path d="M633.977 933.023C633.619 932.405 633.619 931.642 633.977 931.023L646.26 909.749C646.617 909.13 647.277 908.749 647.992 908.749H672.557C673.272 908.749 673.932 909.13 674.289 909.749L686.572 931.023C686.929 931.642 686.929 932.405 686.572 933.023L674.289 954.298C673.932 954.917 673.272 955.298 672.557 955.298H647.992C647.277 955.298 646.617 954.917 646.26 954.298L633.977 933.023Z" fill="#C0015D"/>
<path d="M540.605 927.649C540.247 927.031 540.247 926.268 540.605 925.649L552.888 904.375C553.245 903.756 553.905 903.375 554.62 903.375H579.185C579.9 903.375 580.56 903.756 580.917 904.375L593.2 925.649C593.557 926.268 593.557 927.031 593.2 927.649L580.917 948.924C580.56 949.543 579.9 949.924 579.185 949.924H554.62C553.905 949.924 553.245 949.543 552.888 948.924L540.605 927.649Z" fill="#C0015D"/>
<path d="M678.581 962.511C678.224 961.892 678.224 961.13 678.581 960.511L690.864 939.236C691.221 938.617 691.882 938.236 692.596 938.236H717.162C717.876 938.236 718.537 938.617 718.894 939.236L731.177 960.511C731.534 961.13 731.534 961.892 731.177 962.511L718.894 983.785C718.537 984.404 717.876 984.785 717.162 984.785H692.596C691.882 984.785 691.221 984.404 690.864 983.785L678.581 962.511Z" fill="#D80034"/>
<path d="M585.209 957.137C584.852 956.518 584.852 955.755 585.209 955.137L597.492 933.862C597.849 933.243 598.51 932.862 599.224 932.862H623.79C624.504 932.862 625.164 933.243 625.522 933.862L637.805 955.137C638.162 955.755 638.162 956.518 637.805 957.137L625.522 978.411C625.164 979.03 624.504 979.411 623.79 979.411H599.224C598.51 979.411 597.849 979.03 597.492 978.411L585.209 957.137Z" fill="#D80034"/>
<path d="M730.221 884.562C729.864 883.944 729.864 883.181 730.221 882.562L742.504 861.288C742.861 860.669 743.521 860.288 744.236 860.288H768.801C769.516 860.288 770.176 860.669 770.533 861.288L782.816 882.562C783.174 883.181 783.174 883.944 782.816 884.562L770.533 905.837C770.176 906.456 769.516 906.837 768.801 906.837H744.236C743.521 906.837 742.861 906.456 742.504 905.837L730.221 884.562Z" fill="#D80034"/>
<path d="M728.73 771.776C728.372 771.158 728.372 770.395 728.73 769.776L741.013 748.502C741.37 747.883 742.03 747.502 742.745 747.502H767.31C768.025 747.502 768.685 747.883 769.042 748.502L781.325 769.776C781.682 770.395 781.682 771.158 781.325 771.776L769.042 793.051C768.685 793.67 768.025 794.051 767.31 794.051H742.745C742.03 794.051 741.37 793.67 741.013 793.051L728.73 771.776Z" fill="#D80034"/>
<path d="M775.039 914.225C774.682 913.606 774.682 912.843 775.039 912.225L787.322 890.95C787.679 890.331 788.34 889.95 789.054 889.95H813.62C814.334 889.95 814.995 890.331 815.352 890.95L827.635 912.225C827.992 912.843 827.992 913.606 827.635 914.225L815.352 935.499C814.995 936.118 814.334 936.499 813.62 936.499H789.054C788.34 936.499 787.679 936.118 787.322 935.499L775.039 914.225Z" fill="#E44A9E"/>
<path d="M681.669 908.85C681.312 908.231 681.312 907.468 681.669 906.85L693.952 885.575C694.309 884.956 694.969 884.575 695.684 884.575H720.25C720.964 884.575 721.624 884.956 721.982 885.575L734.265 906.85C734.622 907.468 734.622 908.231 734.265 908.85L721.982 930.124C721.624 930.743 720.964 931.124 720.25 931.124H695.684C694.969 931.124 694.309 930.743 693.952 930.124L681.669 908.85Z" fill="#5E2B9E"/>
<path d="M726.274 938.337C725.916 937.718 725.916 936.956 726.274 936.337L738.556 915.062C738.914 914.444 739.574 914.062 740.289 914.062H764.854C765.569 914.062 766.229 914.444 766.586 915.062L778.869 936.337C779.226 936.956 779.226 937.718 778.869 938.337L766.586 959.611C766.229 960.23 765.569 960.611 764.854 960.611H740.289C739.574 960.611 738.914 960.23 738.556 959.611L726.274 938.337Z" fill="#C0015D"/>
<path d="M639.938 825.526C639.58 824.908 639.58 824.145 639.938 823.526L652.221 802.252C652.578 801.633 653.238 801.252 653.953 801.252H678.518C679.233 801.252 679.893 801.633 680.25 802.252L692.533 823.526C692.89 824.145 692.89 824.908 692.533 825.526L680.25 846.801C679.893 847.42 679.233 847.801 678.518 847.801H653.953C653.238 847.801 652.578 847.42 652.221 846.801L639.938 825.526Z" fill="#D80034"/>
<path d="M591.388 849.813C591.031 849.195 591.031 848.432 591.388 847.813L603.671 826.539C604.028 825.92 604.688 825.539 605.403 825.539H629.968C630.683 825.539 631.343 825.92 631.7 826.539L643.983 847.813C644.341 848.432 644.341 849.195 643.983 849.813L631.7 871.088C631.343 871.707 630.683 872.088 629.968 872.088H605.403C604.688 872.088 604.028 871.707 603.671 871.088L591.388 849.813Z" fill="#C0015D"/>
<path d="M635.992 879.301C635.635 878.682 635.635 877.92 635.992 877.301L648.275 856.026C648.632 855.407 649.293 855.026 650.007 855.026H674.573C675.287 855.026 675.948 855.407 676.305 856.026L688.588 877.301C688.945 877.92 688.945 878.682 688.588 879.301L676.305 900.575C675.948 901.194 675.287 901.575 674.573 901.575H650.007C649.293 901.575 648.632 901.194 648.275 900.575L635.992 879.301Z" fill="#D80034"/>
<path d="M119.03 1005.99C118.315 1005.99 117.655 1005.61 117.298 1004.99L105.015 983.713C104.658 983.094 104.658 982.332 105.015 981.713L117.298 960.438C117.655 959.82 118.315 959.438 119.03 959.438L143.595 959.438C144.31 959.438 144.97 959.82 145.327 960.438L157.61 981.713C157.967 982.332 157.967 983.094 157.61 983.713L145.327 1004.99C144.97 1005.61 144.31 1005.99 143.595 1005.99L119.03 1005.99Z" fill="#4E75FF"/>
<path d="M258.78 817.862C258.065 817.862 257.405 817.481 257.048 816.862L244.765 795.588C244.408 794.969 244.408 794.207 244.765 793.588L257.048 772.313C257.405 771.695 258.065 771.313 258.78 771.313L283.345 771.313C284.06 771.313 284.72 771.695 285.077 772.313L297.36 793.588C297.717 794.207 297.717 794.969 297.36 795.588L285.077 816.862C284.72 817.481 284.06 817.862 283.345 817.862L258.78 817.862Z" fill="#4E75FF"/>
<path d="M24.4291 575.986C23.7145 575.986 23.0543 575.605 22.697 574.986L10.4142 553.712C10.0569 553.093 10.0569 552.331 10.4142 551.712L22.697 530.437C23.0543 529.819 23.7145 529.437 24.4291 529.437L48.9947 529.437C49.7092 529.437 50.3695 529.819 50.7268 530.437L63.0096 551.712C63.3668 552.331 63.3668 553.093 63.0096 553.712L50.7268 574.986C50.3695 575.605 49.7092 575.986 48.9947 575.986L24.4291 575.986Z" fill="#4E75FF"/>
<path d="M571.981 76.1113C571.266 76.1113 570.606 75.7301 570.249 75.1113L557.966 53.8368C557.609 53.218 557.609 52.4556 557.966 51.8368L570.249 30.5624C570.606 29.9436 571.266 29.5624 571.981 29.5624L596.546 29.5624C597.261 29.5624 597.921 29.9436 598.279 30.5624L610.561 51.8368C610.919 52.4556 610.919 53.218 610.561 53.8368L598.279 75.1113C597.921 75.7301 597.261 76.1113 596.546 76.1113L571.981 76.1113Z" fill="#4E75FF"/>
<path d="M771.931 489.986C771.216 489.986 770.556 489.605 770.199 488.986L757.916 467.712C757.559 467.093 757.559 466.331 757.916 465.712L770.199 444.437C770.556 443.819 771.216 443.437 771.931 443.437L796.497 443.437C797.211 443.437 797.871 443.819 798.229 444.437L810.512 465.712C810.869 466.331 810.869 467.093 810.512 467.712L798.229 488.986C797.871 489.605 797.211 489.986 796.497 489.986L771.931 489.986Z" fill="#4E75FF"/>
<path d="M897.706 374.962C896.992 374.962 896.332 374.581 895.974 373.962L883.692 352.687C883.334 352.069 883.334 351.306 883.692 350.687L895.974 329.413C896.332 328.794 896.992 328.413 897.706 328.413L922.272 328.413C922.987 328.413 923.647 328.794 924.004 329.413L936.287 350.687C936.644 351.306 936.644 352.069 936.287 352.687L924.004 373.962C923.647 374.581 922.987 374.962 922.272 374.962L897.706 374.962Z" fill="#4E75FF"/>
</svg>
