<?xml version="1.0" encoding="UTF-8"?><svg id="Layer_2" xmlns="http://www.w3.org/2000/svg" xmlns:xlink="http://www.w3.org/1999/xlink" viewBox="0 0 946.15 170.83"><defs><style>.cls-1{fill:url(#linear-gradient);}.cls-2{fill:#fff;}.cls-3{fill:#ff595e;}.cls-4{fill:#4099ec;}.cls-5{isolation:isolate;}</style><linearGradient id="linear-gradient" x1="-.02" y1="84.12" x2="168.26" y2="84.12" gradientTransform="translate(191.54 33) rotate(109.55)" gradientUnits="userSpaceOnUse"><stop offset="0" stop-color="#6eafeb"/><stop offset=".06" stop-color="#6aadeb"/><stop offset=".66" stop-color="#4b9eeb"/><stop offset="1" stop-color="#4099ec"/></linearGradient></defs><g id="Layer_1-2"><g><circle class="cls-1" cx="84.12" cy="84.12" r="84.12"/><circle class="cls-2" cx="84.12" cy="84.12" r="60.3"/><path class="cls-3" d="m83.69,123.91l-30.52-30.52c-22.89-22.89,7.63-53.41,30.52-30.52,23.55-23.55,54.07,6.96,30.52,30.52l-30.52,30.52Z"/></g><g><g class="cls-5"><path class="cls-4" d="m268.43,102.77c.95,0,1.89.47,2.84,1.58s1.42,2.21,1.42,3.31c0,.63-.16,1.26-.47,1.58-4.1,4.57-8.82,8.19-14.18,10.71-5.36,2.52-11.03,3.78-17.17,3.78-8.03,0-15.12-1.89-21.58-5.83-6.3-3.94-11.34-9.29-14.97-16.07-3.62-6.93-5.36-14.65-5.36-23.32,0-9.14,1.73-17.17,5.2-24.1,3.47-6.93,8.35-12.13,14.65-15.91,6.3-3.78,13.71-5.67,22.06-5.67,8.98,0,16.23,2.21,21.9,6.46,5.67,4.41,8.66,9.92,8.66,16.7,0,5.04-1.58,8.98-4.73,12.29-3.15,3.15-7.25,4.73-12.29,4.73-2.21,0-3.31-.63-3.31-1.89,0-.32.47-1.1,1.26-2.36s1.58-2.84,2.05-4.73c.63-1.89.95-4.25.95-7.09,0-4.57-1.42-8.35-4.41-11.03s-6.93-4.1-11.82-4.1c-6.62,0-11.97,3.31-15.91,9.77-4.1,6.46-6.14,14.97-6.14,25.52s2.36,19.22,7.25,25.68c4.73,6.3,11.34,9.45,19.53,9.45s15.91-2.84,22.84-8.66c.47-.63,1.1-.79,1.73-.79Z"/><path class="cls-4" d="m334.75,119.47c-5.04,2.84-10.4,4.1-16.07,4.1s-10.71-1.58-15.44-4.73c-4.73-3.15-8.51-7.88-11.34-14.34-2.84-6.3-4.25-14.02-4.25-23.16,0-9.92,1.89-18.59,5.51-25.99,3.62-7.4,8.82-12.92,15.6-16.86,6.77-3.94,14.65-5.83,23.79-5.83,4.57,0,10.87.79,19.06,2.21,6.93,1.1,12.13,1.89,15.6,2.05l1.89,2.21-2.05,3.15c-.79,1.1-1.42,2.21-1.73,3.15s-.47,2.21-.47,3.62v56.71c0,3.62,1.73,5.36,5.2,5.36,2.84,0,5.83-1.1,8.66-3.15l3.31,4.57c-2.99,3.31-6.3,5.99-9.77,8.03-3.47,1.89-6.62,2.99-9.61,2.99-4.73,0-8.19-1.42-10.24-4.41-2.05-2.99-3.15-7.56-3.15-14.02-4.73,6.77-9.45,11.5-14.49,14.34Zm-23.32-17.01c3.78,5.2,8.51,7.88,14.18,7.88,4.57,0,8.98-1.26,13.08-3.94s7.56-6.62,10.71-11.82v-46.95c-5.36-3.62-11.03-5.36-17.01-5.36-8.51,0-14.97,3.15-19.53,9.45-4.57,6.3-6.93,15.12-6.93,26.47-.16,11.03,1.73,19.06,5.51,24.26Z"/><path class="cls-4" d="m421.08,58.5c1.89-7.72,5.04-14.02,9.14-18.75,4.1-4.73,8.66-7.09,13.39-7.09s8.82,1.58,12.13,4.73c3.15,3.15,4.73,7.56,4.73,12.92,0,4.41-1.58,8.03-4.88,11.19-3.31,2.99-7.25,4.57-12.13,4.57-2.21,0-3.31-.63-3.31-1.89,0-.32.47-1.26,1.42-2.68.95-1.42,1.73-2.84,2.36-4.41s.95-3.15.95-5.04c0-2.05-.47-3.78-1.58-4.88-1.1-1.26-2.52-1.89-4.1-1.89-2.84,0-5.67,1.58-8.66,4.88s-5.51,8.66-7.56,15.91c-2.05,7.4-3.15,16.7-3.15,27.88,0,5.2.47,9.45,1.26,12.6s2.21,6.14,4.41,9.14l2.05,2.84-2.05,2.68h-30.4l-1.89-5.36,3.62-.95c2.84-.63,4.88-1.89,5.83-3.78.95-1.73,1.42-4.88,1.42-9.29v-48.84c0-1.42-.32-2.36-.79-2.99s-1.42-.95-2.68-.95h-7.56l-1.58-4.57c3.31-2.99,7.25-5.51,11.5-7.4,4.41-1.89,8.19-2.99,11.34-2.99,1.58,0,2.99.47,3.94,1.58s1.58,2.36,1.58,3.94v18.59h1.26v.32Z"/><path class="cls-4" d="m527.26,119.63c-5.83,2.68-12.29,3.94-19.06,3.94-8.03,0-14.97-1.89-20.95-5.51s-10.71-8.98-14.02-15.6-4.88-14.49-4.88-23.32c0-9.29,1.89-17.33,5.51-24.42,3.62-6.93,8.98-12.45,15.75-16.38s14.65-5.83,23.63-5.83c6.3,0,11.82,1.26,16.23,3.62s7.72,5.51,9.92,9.45c2.21,3.94,3.31,8.03,3.31,12.6,0,4.88-1.26,9.61-3.94,14.02-2.68,4.57-6.46,8.19-11.34,11.03-5.04,2.84-10.87,4.25-17.8,4.25-3.78,0-7.88-.63-12.29-2.05-4.57-1.42-6.77-3.47-6.77-6.14,0-.95.32-1.73.79-2.68.47-.79,1.1-1.26,1.89-1.26.32,0,1.58.32,3.47,1.1s4.57,1.1,7.56,1.1c6.93,0,12.29-1.89,16.23-5.83s5.83-8.51,5.83-13.86c0-4.57-1.42-8.35-4.41-11.66-2.84-3.31-6.93-4.88-12.13-4.88-7.4,0-13.23,3.31-17.33,9.77-4.1,6.62-6.3,15.91-6.3,28.04,0,10.24,2.21,18.43,6.62,24.26,4.41,5.83,10.71,8.82,19.06,8.82,10.24,0,18.59-3.31,25.36-9.92.47-.47.95-.63,1.58-.63.95,0,1.89.47,2.99,1.58,1.1,1.1,1.58,2.21,1.58,3.31,0,.63-.16,1.1-.63,1.58-4.41,5.04-9.61,8.82-15.44,11.5Z"/></g><g class="cls-5"><path class="cls-3" d="m584.44,167.36c-4.57-2.36-7.88-5.51-10.08-9.14-2.21-3.78-3.31-7.72-3.31-12.13,0-5.83,1.89-10.71,5.83-14.81s9.29-6.14,16.07-6.14c1.1,0,2.05.16,2.52.63.47.47.79.79.79,1.26s-.79,1.58-2.36,3.31-2.99,3.78-4.25,6.3c-1.26,2.36-1.89,5.51-1.89,9.14,0,4.57,1.42,8.51,4.1,11.5s6.46,4.57,11.03,4.57c7.25,0,12.45-2.99,15.75-8.82s5.04-13.86,5.04-23.79v-25.68c-2.68,5.04-6.62,9.14-11.97,12.13-5.36,2.99-11.19,4.41-17.49,4.41-8.19,0-14.65-2.52-19.22-7.56-4.57-5.04-6.93-12.13-6.93-21.27v-38.6c0-1.42-.32-2.36-.79-2.99s-1.42-.95-2.68-.95h-7.56l-1.58-4.57c2.99-2.99,6.62-5.51,11.03-7.4s8.35-2.99,11.82-2.99c1.58,0,2.99.47,3.94,1.58s1.58,2.36,1.58,3.94v47.73c0,6.93,1.42,12.29,4.1,15.75,2.84,3.62,6.77,5.36,12.13,5.36,7.72,0,13.86-2.99,18.12-8.82,4.41-5.83,6.46-13.86,6.46-24.26,0-9.45-.47-16.54-1.26-21.11s-2.68-8.82-5.51-12.6l-2.05-2.84,2.05-2.68,21.11-2.21v92.79c0,14.18-3.47,25.21-10.4,32.93s-16.23,11.5-28.2,11.5c-5.99,0-11.5-1.1-15.91-3.47Z"/><path class="cls-3" d="m703.54,120.89c-5.04,2.84-10.4,4.1-16.07,4.1s-10.71-1.58-15.44-4.73-8.51-7.88-11.34-14.34c-2.84-6.3-4.25-14.02-4.25-23.16,0-9.92,1.89-18.59,5.51-25.99s8.82-12.92,15.6-16.86c6.77-3.94,14.65-5.83,23.79-5.83,4.57,0,10.87.79,19.06,2.21,6.93,1.1,12.13,1.89,15.6,2.05l1.89,2.21-2.05,3.15c-.79,1.1-1.42,2.21-1.73,3.15s-.47,2.21-.47,3.62v56.71c0,3.62,1.73,5.36,5.2,5.36,2.84,0,5.83-1.1,8.66-3.15l3.31,4.57c-2.99,3.31-6.3,5.99-9.77,8.03-3.47,1.89-6.62,2.99-9.61,2.99-4.73,0-8.19-1.42-10.24-4.41s-3.15-7.56-3.15-14.02c-4.73,6.77-9.61,11.66-14.49,14.34Zm-23.47-17.01c3.78,5.2,8.51,7.88,14.18,7.88,4.57,0,8.98-1.26,13.08-3.94,4.1-2.68,7.56-6.62,10.71-11.82v-46.95c-5.36-3.62-11.03-5.36-17.01-5.36-8.51,0-14.97,3.15-19.53,9.45s-6.93,15.12-6.93,26.47,1.73,19.06,5.51,24.26Z"/><path class="cls-3" d="m779.79,167.36c-4.57-2.36-7.88-5.51-10.08-9.14-2.21-3.78-3.31-7.72-3.31-12.13,0-5.83,1.89-10.71,5.83-14.81s9.29-6.14,16.07-6.14c1.1,0,2.05.16,2.52.63.47.47.79.79.79,1.26s-.79,1.58-2.36,3.31-2.99,3.78-4.25,6.3c-1.26,2.36-1.89,5.51-1.89,9.14,0,4.57,1.42,8.51,4.1,11.5s6.46,4.57,11.03,4.57c7.25,0,12.45-2.99,15.75-8.82s5.04-13.86,5.04-23.79v-25.68c-2.68,5.04-6.62,9.14-11.97,12.13-5.36,2.99-11.19,4.41-17.49,4.41-8.19,0-14.65-2.52-19.22-7.56-4.57-5.04-6.93-12.13-6.93-21.27v-38.6c0-1.42-.32-2.36-.79-2.99s-1.42-.95-2.68-.95h-7.56l-1.58-4.57c2.99-2.99,6.62-5.51,11.03-7.4s8.35-2.99,11.82-2.99c1.58,0,2.99.47,3.94,1.58s1.58,2.36,1.58,3.94v47.73c0,6.93,1.42,12.29,4.1,15.75,2.84,3.62,6.77,5.36,12.13,5.36,7.72,0,13.86-2.99,18.12-8.82,4.41-5.83,6.46-13.86,6.46-24.26,0-9.45-.47-16.54-1.26-21.11s-2.68-8.82-5.51-12.6l-2.05-2.84,2.05-2.68,21.11-2.21v92.79c0,14.18-3.47,25.21-10.4,32.93s-16.23,11.5-28.2,11.5c-5.99,0-11.34-1.1-15.91-3.47Z"/><path class="cls-3" d="m898.89,120.89c-5.04,2.84-10.4,4.1-16.07,4.1s-10.71-1.58-15.44-4.73c-4.73-3.15-8.51-7.88-11.34-14.34-2.84-6.3-4.25-14.02-4.25-23.16,0-9.92,1.89-18.59,5.51-25.99,3.62-7.4,8.82-12.92,15.6-16.86,6.77-3.94,14.65-5.83,23.79-5.83,4.57,0,10.87.79,19.06,2.21,6.93,1.1,12.13,1.89,15.6,2.05l1.89,2.21-2.05,3.15c-.79,1.1-1.42,2.21-1.73,3.15-.32.95-.47,2.21-.47,3.62v56.71c0,3.62,1.73,5.36,5.2,5.36,2.84,0,5.83-1.1,8.66-3.15l3.31,4.57c-2.99,3.31-6.3,5.99-9.77,8.03-3.47,1.89-6.62,2.99-9.61,2.99-4.73,0-8.19-1.42-10.24-4.41s-3.15-7.56-3.15-14.02c-4.57,6.77-9.45,11.66-14.49,14.34Zm-23.32-17.01c3.78,5.2,8.51,7.88,14.18,7.88,4.57,0,8.98-1.26,13.08-3.94s7.56-6.62,10.71-11.82v-46.95c-5.36-3.62-11.03-5.36-17.01-5.36-8.51,0-14.97,3.15-19.53,9.45-4.57,6.3-6.93,15.12-6.93,26.47-.16,11.03,1.73,19.06,5.51,24.26Z"/></g></g></g></svg>